<svg width="1280" height="399" viewBox="0 0 1280 399" fill="none" xmlns="http://www.w3.org/2000/svg">
<g clip-path="url(#clip0_1136_13836)">
<rect width="1280" height="399" rx="32" fill="#2E8C7A"/>
<path d="M1488 383.5C1488 598.063 1314.06 772 1099.5 772C884.937 772 711 598.063 711 383.5C711 168.937 884.937 -5 1099.5 -5C1314.06 -5 1488 168.937 1488 383.5ZM866.4 383.5C866.4 512.238 970.762 616.6 1099.5 616.6C1228.24 616.6 1332.6 512.238 1332.6 383.5C1332.6 254.762 1228.24 150.4 1099.5 150.4C970.762 150.4 866.4 254.762 866.4 383.5Z" fill="#38A28D"/>
<path d="M191 49.5C191 143.665 114.665 220 20.5 220C-73.6646 220 -150 143.665 -150 49.5C-150 -44.6646 -73.6646 -121 20.5 -121C114.665 -121 191 -44.6646 191 49.5ZM-81.8 49.5C-81.8 105.999 -35.9987 151.8 20.5 151.8C76.9987 151.8 122.8 105.999 122.8 49.5C122.8 -6.99873 76.9987 -52.8 20.5 -52.8C-35.9987 -52.8 -81.8 -6.99873 -81.8 49.5Z" fill="#38A28D"/>
</g>
<defs>
<clipPath id="clip0_1136_13836">
<rect width="1280" height="399" rx="32" fill="white"/>
</clipPath>
</defs>
</svg>
