<svg width="40" height="40" viewBox="0 0 40 40" fill="none" xmlns="http://www.w3.org/2000/svg">
<path opacity="0.958" fill-rule="evenodd" clip-rule="evenodd" d="M19.1797 1.91388C23.7502 1.82237 27.2788 3.67133 29.7656 7.46076C30.6965 9.05544 31.2173 10.7742 31.3281 12.617C31.5843 12.8732 31.8448 13.1336 32.1094 13.3983C32.209 13.5715 32.2871 13.7538 32.3438 13.9451C32.3959 15.5336 32.3959 17.1222 32.3438 18.7108C31.9381 19.8811 31.1178 20.3368 29.8828 20.0779C29.7176 20.0344 29.5613 19.9693 29.4141 19.8826C27.9213 20.8617 26.2807 21.4215 24.4922 21.5623C24.2414 21.6561 24.033 21.8124 23.8672 22.0311C23.6941 22.1126 23.5119 22.1647 23.3203 22.1873C22.7734 22.2394 22.2266 22.2394 21.6797 22.1873C20.6823 21.9243 20.3829 21.3124 20.7813 20.3514C20.9327 20.1478 21.128 20.0046 21.3672 19.9217C22.1224 19.8696 22.8776 19.8696 23.6328 19.9217C23.8564 19.9944 24.0387 20.1246 24.1797 20.3123C25.791 20.2416 27.2754 19.7729 28.6328 18.9061C28.576 18.7968 28.537 18.6796 28.5156 18.5545C28.4635 17.0961 28.4635 15.6379 28.5156 14.1795C28.6163 13.5979 28.9159 13.1552 29.4141 12.8514C29.3509 10.2378 28.3613 8.03724 26.4453 6.24982C23.353 3.65109 19.9155 3.07818 16.1328 4.53107C12.9778 6.04672 11.0898 8.53372 10.4688 11.992C10.4043 12.2819 10.4173 12.5684 10.5078 12.8514C11.006 13.1552 11.3055 13.5979 11.4063 14.1795C11.4584 15.6379 11.4584 17.0961 11.4063 18.5545C10.9159 20.0038 9.9393 20.4595 8.47656 19.9217C7.9968 19.6504 7.69734 19.2468 7.57813 18.7108C7.52604 17.1222 7.52604 15.5336 7.57813 13.9451C7.63474 13.7538 7.71286 13.5715 7.8125 13.3983C8.07711 13.1336 8.33758 12.8732 8.59375 12.617C9.12391 7.53106 11.7932 4.13262 16.6016 2.42169C17.4588 2.1851 18.3182 2.01583 19.1797 1.91388Z" fill="#2E8C7A"/>
<path opacity="0.99" fill-rule="evenodd" clip-rule="evenodd" d="M19.8048 5.50781C23.7226 5.50855 26.2096 7.38355 27.2657 11.1328C27.811 13.8511 27.4725 16.4552 26.2501 18.9453C25.7671 19.1593 25.2593 19.2895 24.7267 19.3359C24.2627 19.1077 23.7679 18.9645 23.2423 18.9062C22.562 18.8475 21.8849 18.8735 21.2111 18.9844C19.9157 19.4787 19.4339 20.4031 19.7657 21.7578C20.1029 22.5381 20.6888 22.9938 21.5236 23.125C22.2554 23.1838 22.9846 23.1707 23.7111 23.0859C23.4798 23.8939 23.6882 24.558 24.3361 25.0781C25.2654 25.6468 26.255 26.0895 27.3048 26.4062C28.9132 27.0798 30.4236 27.9132 31.8361 28.9062C33.7169 30.3728 34.3289 32.2609 33.672 34.5703C33.314 35.2477 32.8062 35.7816 32.1486 36.1719C31.2165 36.6909 30.2269 37.0555 29.1798 37.2656C26.1203 37.8237 23.0343 38.0712 19.922 38.0078C16.8864 38.0802 13.8786 37.8329 10.8986 37.2656C9.76309 37.0174 8.69535 36.6008 7.69543 36.0156C5.98237 34.6798 5.55268 33.0002 6.40637 30.9766C6.77005 30.2998 7.25182 29.7138 7.85168 29.2188C10.1669 27.54 12.6669 26.1859 15.3517 25.1562C16.3105 24.5714 16.5839 23.7511 16.172 22.6953C15.1031 21.3395 14.1917 19.8812 13.4376 18.3203C12.2873 15.5425 12.1832 12.73 13.1251 9.88281C14.4509 7.0612 16.6775 5.60287 19.8048 5.50781Z" fill="#2E8C7A"/>
</svg>
