<svg width="40" height="40" viewBox="0 0 40 40" fill="none" xmlns="http://www.w3.org/2000/svg">
<g clip-path="url(#clip0_1136_13378)">
<path opacity="0.987" fill-rule="evenodd" clip-rule="evenodd" d="M19.2585 -0.0390625C19.7272 -0.0390625 20.196 -0.0390625 20.6647 -0.0390625C21.1179 0.108919 21.5607 0.304231 21.9929 0.546875C23.0085 1.51041 24.0241 2.47396 25.0397 3.4375C25.2351 3.5026 25.4304 3.56771 25.6257 3.63281C27.139 3.3533 28.6625 3.18403 30.196 3.125C31.5172 3.37898 32.4417 4.12117 32.9694 5.35156C33.257 6.84298 33.5695 8.32734 33.9069 9.80469C34.0286 9.94992 34.1718 10.0671 34.3366 10.1562C35.5983 10.7739 36.8222 11.4509 38.0085 12.1875C39.2186 13.422 39.4921 14.8413 38.8288 16.4453C38.2076 17.583 37.6738 18.7549 37.2272 19.9609C37.2403 20.0651 37.2533 20.1693 37.2663 20.2734C37.8866 21.5401 38.4856 22.8161 39.0632 24.1016C39.3844 25.5127 39.0329 26.7236 38.0085 27.7344C36.8222 28.4709 35.5983 29.148 34.3366 29.7656C34.1718 29.8548 34.0286 29.972 33.9069 30.1172C33.5797 31.4033 33.3192 32.7054 33.1257 34.0234C32.5331 36.0199 31.1919 36.9444 29.1022 36.7969C27.9366 36.649 26.7777 36.4797 25.6257 36.2891C25.4345 36.3598 25.2392 36.4249 25.0397 36.4844C24.0241 37.4479 23.0085 38.4115 21.9929 39.375C21.5607 39.6177 21.1179 39.813 20.6647 39.9609C20.196 39.9609 19.7272 39.9609 19.2585 39.9609C18.8053 39.813 18.3625 39.6177 17.9304 39.375C16.9147 38.4115 15.8991 37.4479 14.8835 36.4844C14.6983 36.427 14.5159 36.3619 14.3366 36.2891C12.9888 36.5096 11.6347 36.692 10.2741 36.8359C8.69192 36.7682 7.58519 36.013 6.9538 34.5703C6.66624 33.0789 6.35374 31.5945 6.0163 30.1172C5.8946 29.972 5.75137 29.8548 5.58661 29.7656C4.32494 29.148 3.10099 28.4709 1.91474 27.7344C0.704596 26.4998 0.431158 25.0805 1.09442 23.4766C1.71558 22.3388 2.24944 21.167 2.69599 19.9609C2.68296 19.8568 2.66995 19.7526 2.65692 19.6484C2.03662 18.3818 1.43767 17.1058 0.860049 15.8203C0.538831 14.4092 0.890393 13.1983 1.91474 12.1875C3.10099 11.4509 4.32494 10.7739 5.58661 10.1562C5.75137 10.0671 5.8946 9.94992 6.0163 9.80469C6.34358 8.51859 6.60399 7.21649 6.79755 5.89844C7.39014 3.90198 8.7313 2.9775 10.821 3.125C11.9816 3.28708 13.1404 3.45635 14.2976 3.63281C14.4929 3.56771 14.6882 3.5026 14.8835 3.4375C15.8991 2.47396 16.9147 1.51041 17.9304 0.546875C18.3625 0.304231 18.8053 0.108919 19.2585 -0.0390625ZM14.6491 9.64844C17.1576 9.48867 18.7591 10.6084 19.4538 13.0078C19.7081 15.4804 18.6534 17.108 16.2897 17.8906C14.0961 18.2196 12.4946 17.3993 11.4851 15.4297C10.7614 13.2779 11.3213 11.5461 13.1647 10.2344C13.6416 9.96742 14.1364 9.77211 14.6491 9.64844ZM27.3835 11.2109C28.4787 11.3273 28.8564 11.9003 28.5163 12.9297C23.321 18.125 18.1257 23.3203 12.9304 28.5156C11.9865 28.8637 11.4136 28.5381 11.2116 27.5391C11.2535 27.3483 11.3186 27.166 11.4069 26.9922C16.6022 21.7969 21.7976 16.6016 26.9929 11.4062C27.1347 11.3471 27.2648 11.282 27.3835 11.2109ZM24.1022 21.9141C26.105 21.8484 27.5504 22.7077 28.4382 24.4922C29.1618 26.644 28.6019 28.3758 26.7585 29.6875C24.593 30.7596 22.7311 30.382 21.1726 28.5547C19.8162 26.1547 20.2459 24.1364 22.4616 22.5C22.993 22.232 23.5399 22.0366 24.1022 21.9141Z" fill="#2E8C7A"/>
<path opacity="0.952" fill-rule="evenodd" clip-rule="evenodd" d="M15.0385 11.8359C16.6367 11.8586 17.3789 12.6659 17.265 14.2578C16.6881 15.6952 15.6856 16.0988 14.2572 15.4688C13.3564 14.7252 13.161 13.8267 13.6713 12.7734C14.0142 12.2858 14.4699 11.9733 15.0385 11.8359Z" fill="#2E8C7A"/>
<path opacity="0.953" fill-rule="evenodd" clip-rule="evenodd" d="M24.1013 24.1796C25.3177 24.0124 26.1119 24.5072 26.4841 25.664C26.5534 27.4438 25.707 28.212 23.945 27.9687C22.9192 27.5453 22.4895 26.7771 22.656 25.664C22.8944 24.9178 23.3762 24.4231 24.1013 24.1796Z" fill="#2E8C7A"/>
</g>
<defs>
<clipPath id="clip0_1136_13378">
<rect width="40" height="40" fill="white"/>
</clipPath>
</defs>
</svg>
