<svg width="1440" height="783" viewBox="0 0 1440 783" fill="none" xmlns="http://www.w3.org/2000/svg">
<g clip-path="url(#clip0_1158_57745)">
<rect width="1440" height="783" fill="#2E8C7A"/>
<path d="M1704 598.5C1704 839.572 1508.57 1035 1267.5 1035C1026.43 1035 831 839.572 831 598.5C831 357.428 1026.43 162 1267.5 162C1508.57 162 1704 357.428 1704 598.5ZM1005.6 598.5C1005.6 743.143 1122.86 860.4 1267.5 860.4C1412.14 860.4 1529.4 743.143 1529.4 598.5C1529.4 453.857 1412.14 336.6 1267.5 336.6C1122.86 336.6 1005.6 453.857 1005.6 598.5Z" fill="#38A28D"/>
<path d="M262 778C262 912.205 153.205 1021 19 1021C-115.205 1021 -224 912.205 -224 778C-224 643.795 -115.205 535 19 535C153.205 535 262 643.795 262 778ZM-126.8 778C-126.8 858.523 -61.5231 923.8 19 923.8C99.5231 923.8 164.8 858.523 164.8 778C164.8 697.477 99.5231 632.2 19 632.2C-61.5231 632.2 -126.8 697.477 -126.8 778Z" fill="#38A28D"/>
</g>
<defs>
<clipPath id="clip0_1158_57745">
<rect width="1440" height="783" fill="white"/>
</clipPath>
</defs>
</svg>
