<svg width="440" height="1045" viewBox="0 0 440 1045" fill="none" xmlns="http://www.w3.org/2000/svg">
<g clip-path="url(#clip0_1246_1323)">
<rect width="441.128" height="1053" transform="translate(-1)" fill="url(#paint0_linear_1246_1323)"/>
<path d="M684 860C684 988.13 578.115 1092 447.5 1092C316.885 1092 211 988.13 211 860C211 731.87 316.885 628 447.5 628C578.115 628 684 731.87 684 860ZM305.6 860C305.6 936.878 369.131 999.2 447.5 999.2C525.869 999.2 589.4 936.878 589.4 860C589.4 783.122 525.869 720.8 447.5 720.8C369.131 720.8 305.6 783.122 305.6 860Z" fill="#308070"/>
<path d="M79 104C79 191.813 6.47012 263 -83 263C-172.47 263 -245 191.813 -245 104C-245 16.1867 -172.47 -55 -83 -55C6.47012 -55 79 16.1867 79 104ZM-180.2 104C-180.2 156.688 -136.682 199.4 -83 199.4C-29.3179 199.4 14.2 156.688 14.2 104C14.2 51.312 -29.3179 8.6 -83 8.6C-136.682 8.6 -180.2 51.312 -180.2 104Z" fill="#308070"/>
</g>
<defs>
<linearGradient id="paint0_linear_1246_1323" x1="220.564" y1="0" x2="220.564" y2="1053" gradientUnits="userSpaceOnUse">
<stop stop-color="#30B79D"/>
<stop offset="1" stop-color="#175849"/>
</linearGradient>
<clipPath id="clip0_1246_1323">
<rect width="441.128" height="1053" fill="white" transform="translate(-1)"/>
</clipPath>
</defs>
</svg>
