<svg width="1239" height="909" viewBox="0 0 1239 909" fill="none" xmlns="http://www.w3.org/2000/svg">
<path d="M809.116 126.797C748.617 191.684 630.113 358.342 640.088 505.875" stroke="url(#paint0_linear_1136_13406)"/>
<path d="M723.91 150.02C663.411 214.907 617.644 371.319 627.62 518.852" stroke="url(#paint1_linear_1136_13406)"/>
<path d="M652.557 147.971C626.233 238.13 604.758 472.407 604.758 546.174" stroke="url(#paint2_linear_1136_13406)"/>
<path d="M420.49 139.774C480.989 204.662 593.259 402.739 583.283 550.272" stroke="url(#paint3_linear_1136_13406)"/>
<path d="M505.699 139.774C566.198 204.662 605.73 415.716 595.755 563.249" stroke="url(#paint4_linear_1136_13406)"/>
<path d="M573.585 143.872C600.26 242.681 602.68 490.601 602.68 571.445" stroke="url(#paint5_linear_1136_13406)"/>
<ellipse cx="626.464" cy="683.398" rx="375.464" ry="225.398" fill="url(#paint6_radial_1136_13406)"/>
<ellipse cx="383.777" cy="40.0531" rx="30.4804" ry="30.0531" fill="url(#paint7_linear_1136_13406)"/>
<g filter="url(#filter0_d_1136_13406)">
<path d="M399 40C399 34.3435 399 31.5145 397.242 29.758C395.484 28.0015 392.657 28 387 28H381C375.344 28 372.515 28 370.758 29.758C369.001 31.516 369 34.3435 369 40C369 45.6565 369 48.4855 370.758 50.242C372.516 51.9985 375.344 52 381 52H387C392.657 52 395.486 52 397.242 50.242C398.223 49.2625 398.657 47.95 398.847 46M381 46H375M387 46H384.75M369 37H376.5M399 37H382.5" stroke="white" stroke-width="1.5" stroke-linecap="round" shape-rendering="crispEdges"/>
</g>
<ellipse cx="459.977" cy="40.0531" rx="30.4804" ry="30.0531" fill="url(#paint8_linear_1136_13406)"/>
<g filter="url(#filter1_d_1136_13406)">
<path d="M449.957 50.96H453.351V39.0605H449.957V50.96ZM454.243 50.96H457.186V43.4893C457.186 43.3084 457.32 43.1904 457.461 43.1904H462.528C462.669 43.1904 462.814 43.32 462.814 43.501V50.96H465.757V39.0605H454.243V50.96ZM466.649 50.96H470.043V39.0605H466.649V50.96ZM454.659 29.6133L450.229 32.4639L449.554 32.8984L450.307 33.1758L454.582 34.752L455.252 34.999L455.112 34.2988C455.027 33.8717 454.992 33.0329 455.018 32.165C455.044 31.292 455.13 30.472 455.257 30.0703L455.59 29.0146L454.659 29.6133ZM464.677 29.9951C464.813 30.4065 464.905 31.238 464.936 32.124C464.966 33.0043 464.932 33.857 464.845 34.2979L464.708 34.9922L465.373 34.752L469.745 33.1758L470.507 32.9014L469.826 32.4629L465.272 29.5332L464.321 28.9219L464.677 29.9951ZM446.471 34.6211L446.071 34.6201C445.716 34.6194 445.4 34.3127 445.4 33.9102C445.401 33.5073 445.716 33.2003 446.071 33.2002H447.289L447.388 33.1357L458.76 25.7773L458.762 25.7764C459.529 25.275 460.514 25.275 461.281 25.7764L461.283 25.7773L472.655 33.1348L472.754 33.1992H473.929C474.284 33.1993 474.6 33.5062 474.6 33.9092C474.6 34.3116 474.283 34.619 473.928 34.6191H473.527V35.0195L473.528 37.2393V37.6396H473.929C474.284 37.6397 474.6 37.9466 474.6 38.3496C474.599 38.7524 474.284 39.0595 473.929 39.0596H472.457V50.9365L472.83 50.9609C473.015 50.9735 473.191 51.0592 473.322 51.2041C473.454 51.3494 473.528 51.5439 473.528 51.748V52.7803H473.843V53.1797C474.241 53.1797 474.589 53.5204 474.589 53.9678V54.5996H445.4V53.9678C445.4 53.5204 445.748 53.1797 446.146 53.1797V52.7803H446.439V51.748C446.439 51.5399 446.518 51.3424 446.653 51.1963C446.789 51.0506 446.971 50.9674 447.159 50.96L447.543 50.9443V39.0605H446.071C445.716 39.0604 445.401 38.7534 445.4 38.3506C445.4 37.9471 445.716 37.6407 446.07 37.6406H446.471V34.6211Z" stroke="white" stroke-width="0.8"/>
</g>
<ellipse cx="536.18" cy="40.0531" rx="30.4804" ry="30.0531" fill="url(#paint9_linear_1136_13406)"/>
<ellipse cx="616.535" cy="40.0531" rx="30.4804" ry="30.0531" fill="url(#paint10_linear_1136_13406)"/>
<ellipse cx="422.57" cy="123.382" rx="30.4804" ry="30.0531" fill="url(#paint11_linear_1136_13406)"/>
<ellipse cx="764.781" cy="40.0531" rx="30.4804" ry="30.0531" fill="url(#paint12_linear_1136_13406)"/>
<ellipse cx="840.984" cy="40.0531" rx="30.4804" ry="30.0531" fill="url(#paint13_linear_1136_13406)"/>
<ellipse cx="688.582" cy="40.0531" rx="30.4804" ry="30.0531" fill="url(#paint14_linear_1136_13406)"/>
<ellipse cx="577.742" cy="123.382" rx="30.4804" ry="30.0531" fill="url(#paint15_linear_1136_13406)"/>
<g filter="url(#filter2_d_1136_13406)">
<path d="M590.3 111.689C591.233 112.623 591.233 114.127 590.3 115.045L584.144 121.203L587.499 135.752L585.268 138L579.128 126.237L572.956 132.412L573.526 136.322L571.833 138L569.048 132.966L564 130.164L565.677 128.454L569.633 129.04L575.757 122.913L564 116.723L566.247 114.491L580.789 117.847L586.945 111.689C587.831 110.77 589.414 110.77 590.3 111.689Z" fill="white"/>
</g>
<ellipse cx="653.945" cy="123.382" rx="30.4804" ry="30.0531" fill="url(#paint16_linear_1136_13406)"/>
<ellipse cx="735.688" cy="123.382" rx="30.4804" ry="30.0531" fill="url(#paint17_linear_1136_13406)"/>
<ellipse cx="811.887" cy="123.382" rx="30.4804" ry="30.0531" fill="url(#paint18_linear_1136_13406)"/>
<ellipse cx="505.699" cy="123.382" rx="30.4804" ry="30.0531" fill="url(#paint19_linear_1136_13406)"/>
<ellipse cx="609.607" cy="612.427" rx="124.693" ry="122.944" fill="url(#paint20_linear_1136_13406)"/>
<g filter="url(#filter3_d_1136_13406)">
<path d="M545.2 644.1C536.607 637.814 530.926 628.457 529.407 618.086C527.888 607.715 530.655 597.181 537.1 588.8C543.545 580.419 553.139 574.879 563.773 573.397C574.406 571.916 585.207 574.615 593.8 580.9C600.55 586.167 613.24 599.86 610 612.5M626.2 644.1C630.465 647.217 635.297 649.477 640.449 650.764C645.601 652.052 650.963 652.337 656.228 651.603C661.493 650.869 666.558 649.132 671.134 646.489C675.711 643.846 679.709 640.35 682.9 636.2C686.091 632.05 688.413 627.328 689.733 622.303C691.053 617.278 691.345 612.049 690.593 606.914C689.841 601.779 688.059 596.839 685.349 592.375C682.639 587.912 679.055 584.012 674.8 580.9M569.5 652C591.864 652 597.85 636.2 610 612.5M610 612.5C622.15 588.8 628.136 573 650.5 573" stroke="white" stroke-width="10" stroke-linecap="round" shape-rendering="crispEdges"/>
</g>
<path d="M610.302 502.277C778.797 502.277 931.322 522.839 1041.71 556.07C1096.9 572.687 1141.53 592.463 1172.35 614.4C1203.19 636.347 1220.1 660.384 1220.1 685.511C1220.1 710.637 1203.19 734.675 1172.35 756.621C1141.53 778.558 1096.9 798.334 1041.71 814.951C931.322 848.183 778.797 868.744 610.302 868.744C441.806 868.744 289.282 848.183 178.897 814.951C123.702 798.334 79.0708 778.558 48.25 756.621C17.4166 734.675 0.5 710.637 0.5 685.511C0.500014 660.384 17.4166 636.347 48.25 614.4C79.0708 592.463 123.702 572.687 178.897 556.07C289.282 522.839 441.806 502.277 610.302 502.277Z" stroke="url(#paint21_linear_1136_13406)"/>
<path d="M616.536 502.277C762.644 502.277 894.899 522.838 990.609 556.064C1038.47 572.679 1077.16 592.45 1103.88 614.38C1130.6 636.313 1145.29 660.353 1145.29 685.511C1145.29 710.669 1130.6 734.709 1103.88 756.642C1077.16 778.572 1038.47 798.344 990.609 814.958C894.899 848.184 762.644 868.744 616.536 868.744C470.428 868.744 338.173 848.184 242.463 814.958C194.606 798.344 155.912 778.572 129.193 756.642C102.471 734.709 87.7852 710.669 87.7852 685.511C87.7852 660.353 102.471 636.313 129.193 614.38C155.912 592.45 194.606 572.678 242.463 556.064C338.173 522.838 470.428 502.277 616.536 502.277Z" stroke="url(#paint22_linear_1136_13406)"/>
<path d="M631.085 502.277C763.989 502.277 884.29 522.836 971.346 556.059C1014.88 572.67 1050.07 592.439 1074.37 614.364C1098.67 636.29 1112.04 660.333 1112.04 685.511C1112.04 710.688 1098.67 734.731 1074.37 756.657C1050.07 778.583 1014.88 798.351 971.346 814.963C884.29 848.185 763.989 868.744 631.085 868.744C498.181 868.744 377.881 848.185 290.825 814.963C247.296 798.351 212.104 778.583 187.803 756.657C163.502 734.731 150.133 710.688 150.133 685.511C150.133 660.333 163.502 636.29 187.803 614.364C212.104 592.439 247.296 572.67 290.825 556.059C377.881 522.836 498.181 502.277 631.085 502.277Z" stroke="url(#paint23_linear_1136_13406)"/>
<path d="M616.536 403.922C733.391 403.922 828.014 487.849 828.014 591.254C828.013 694.659 733.39 778.585 616.536 778.585C499.682 778.585 405.059 694.659 405.059 591.254C405.059 487.849 499.682 403.922 616.536 403.922Z" stroke="url(#paint24_linear_1136_13406)"/>
<path d="M615.842 528.231C672.206 528.231 723.21 540.755 760.104 560.979C797.017 581.212 819.699 609.082 819.699 639.747C819.699 670.412 797.017 698.283 760.104 718.517C723.21 738.74 672.206 751.264 615.842 751.264C559.478 751.264 508.475 738.74 471.58 718.517C434.667 698.283 411.984 670.412 411.984 639.747C411.985 609.082 434.667 581.212 471.58 560.979C508.475 540.755 559.478 528.231 615.842 528.231Z" stroke="url(#paint25_linear_1136_13406)"/>
<g filter="url(#filter4_f_1136_13406)">
<path d="M1066.93 555.831C1065.72 556.628 1064.68 557.655 1063.87 558.853M1062.21 562.816C1061.93 564.232 1061.93 565.691 1062.21 567.107M1063.82 571.077C1064.62 572.283 1065.64 573.32 1066.84 574.13M1070.81 575.79C1072.22 576.07 1073.68 576.07 1075.09 575.79M1079.07 574.182C1080.28 573.385 1081.32 572.358 1082.13 571.16M1083.79 567.198C1084.07 565.781 1084.07 564.323 1083.79 562.906M1082.18 558.936C1081.38 557.73 1080.36 556.693 1079.16 555.884M1075.19 554.224C1073.78 553.934 1072.32 553.926 1070.9 554.199M1073 560.113L1070.55 565.007H1075.45L1073 569.9" stroke="#52A092" stroke-width="2" stroke-linecap="round" stroke-linejoin="round"/>
</g>
<g filter="url(#filter5_d_1136_13406)">
<path d="M1075.93 803.879L1070.97 796.68L1073.33 795L1078.29 802.199L1075.93 803.879ZM1073.21 807.599L1070.73 803.997L1058.92 812.399L1061.4 815.997L1059.04 817.679L1052.42 808.079L1054.79 806.399L1057.27 810L1069.08 801.598L1066.6 797.998L1068.96 796.318L1075.58 805.918L1073.21 807.599ZM1076.64 799.798L1079 798.118L1077.35 795.719L1074.98 797.399L1076.64 799.798ZM1057.03 817.32L1052.07 810.121L1049.71 811.801L1054.67 819L1057.03 817.32ZM1053.02 816.601L1050.65 818.281L1049 815.882L1051.36 814.202L1053.02 816.601Z" fill="#399281"/>
</g>
<path fill-rule="evenodd" clip-rule="evenodd" d="M548.568 34.0823C548.484 34.0774 548.395 34.0754 548.301 34.0764H544.578C541.53 34.0764 538.922 36.4764 538.922 39.6047C538.922 42.7329 541.531 45.1329 544.578 45.1329H548.301C548.395 45.1339 548.485 45.1319 548.569 45.127C549.196 45.0892 549.787 44.825 550.233 44.3834C550.679 43.9419 550.95 43.3532 550.994 42.727C551 42.6386 551 42.5427 551 42.4543V36.755C551 36.6666 551 36.5708 550.994 36.4823C550.95 35.8562 550.679 35.2675 550.233 34.8259C549.787 34.3844 549.194 34.1201 548.568 34.0823ZM544.253 41.0789C545.037 41.0789 545.672 40.4184 545.672 39.6047C545.672 38.7909 545.037 38.1305 544.253 38.1305C543.467 38.1305 542.831 38.7909 542.831 39.6047C542.831 40.4184 543.467 41.0789 544.253 41.0789Z" fill="white"/>
<path fill-rule="evenodd" clip-rule="evenodd" d="M548.889 47.6388C548.94 47.6367 548.991 47.6467 549.037 47.668C549.083 47.6892 549.124 47.7211 549.156 47.761C549.188 47.801 549.209 47.8478 549.22 47.8978C549.23 47.9477 549.228 47.9994 549.215 48.0486C548.92 49.0982 548.45 49.9946 547.696 50.7464C546.592 51.8521 545.193 52.34 543.465 52.5729C541.785 52.7985 539.64 52.7985 536.93 52.7985H533.817C531.107 52.7985 528.961 52.7985 527.282 52.5729C525.554 52.34 524.155 51.8506 523.051 50.7479C521.948 49.6437 521.458 48.2447 521.226 46.5169C521 44.8363 521 42.6914 521 39.9818V39.8167C521 37.1071 521 34.9607 521.226 33.2801C521.458 31.5523 521.948 30.1533 523.051 29.0491C524.155 27.9464 525.554 27.457 527.282 27.2241C528.962 27 531.107 27 533.817 27H536.93C539.64 27 541.786 27 543.465 27.2256C545.193 27.4585 546.592 27.9479 547.696 29.0506C548.45 29.8054 548.92 30.7002 549.215 31.7499C549.228 31.7991 549.23 31.8507 549.22 31.9007C549.209 31.9507 549.188 31.9975 549.156 32.0375C549.124 32.0774 549.083 32.1093 549.037 32.1305C548.991 32.1517 548.94 32.1617 548.889 32.1597H545.168C540.986 32.1597 537.3 35.4619 537.3 39.8992C537.3 44.3366 540.986 47.6388 545.168 47.6388H548.889ZM526.528 32.8968C526.235 32.8968 525.954 33.0133 525.746 33.2206C525.539 33.428 525.423 33.7092 525.423 34.0024C525.423 34.2957 525.539 34.5769 525.746 34.7843C525.954 34.9916 526.235 35.1081 526.528 35.1081H532.425C532.718 35.1081 533 34.9916 533.207 34.7843C533.414 34.5769 533.531 34.2957 533.531 34.0024C533.531 33.7092 533.414 33.428 533.207 33.2206C533 33.0133 532.718 32.8968 532.425 32.8968H526.528Z" fill="white"/>
<g filter="url(#filter6_d_1136_13406)">
<path d="M613.075 27.0001C610.713 26.9876 608.412 29.2626 609.463 32.0876H605.5C604.837 32.0876 604.201 32.3509 603.732 32.8198C603.263 33.2886 603 33.9245 603 34.5876V37.0876C603 37.4191 603.132 37.737 603.366 37.9714C603.601 38.2059 603.918 38.3376 604.25 38.3376H615.5V34.5876H618V38.3376H629.25C629.582 38.3376 629.899 38.2059 630.134 37.9714C630.368 37.737 630.5 37.4191 630.5 37.0876V34.5876C630.5 33.9245 630.237 33.2886 629.768 32.8198C629.299 32.3509 628.663 32.0876 628 32.0876H624.038C625.5 28.0001 620 25.1126 617.462 28.6376L616.75 29.5876L616.038 28.6126C615.25 27.5001 614.163 27.0126 613.075 27.0001ZM613 29.5876C614.113 29.5876 614.675 30.9376 613.887 31.7251C613.1 32.5126 611.75 31.9501 611.75 30.8376C611.75 30.506 611.882 30.1881 612.116 29.9537C612.351 29.7192 612.668 29.5876 613 29.5876ZM620.5 29.5876C621.612 29.5876 622.175 30.9376 621.388 31.7251C620.6 32.5126 619.25 31.9501 619.25 30.8376C619.25 30.506 619.382 30.1881 619.616 29.9537C619.851 29.7192 620.168 29.5876 620.5 29.5876ZM604.25 39.5876V49.5876C604.25 50.2506 604.513 50.8865 604.982 51.3553C605.451 51.8242 606.087 52.0876 606.75 52.0876H626.75C627.413 52.0876 628.049 51.8242 628.518 51.3553C628.987 50.8865 629.25 50.2506 629.25 49.5876V39.5876H618V49.5876H615.5V39.5876H604.25Z" fill="white"/>
</g>
<path d="M698.335 48V34H679.668V48C679.668 49.8856 679.668 50.8284 680.254 51.4142C680.84 52 681.782 52 683.668 52H694.335C696.22 52 697.163 52 697.749 51.4142C698.335 50.8284 698.335 49.8856 698.335 48Z" stroke="white" stroke-width="1.2"/>
<path d="M697 28H681C679.114 28 678.172 28 677.586 28.5858C677 29.1716 677 30.1144 677 32V33.6C677 33.7886 677 33.8828 677.059 33.9414C677.117 34 677.211 34 677.4 34H679.667H698.333H700.6C700.789 34 700.883 34 700.941 33.9414C701 33.8828 701 33.7886 701 33.6V32C701 30.1144 701 29.1716 700.414 28.5858C699.828 28 698.886 28 697 28Z" stroke="white" stroke-width="1.2"/>
<path d="M686.332 46H691.665" stroke="white" stroke-width="1.2" stroke-linecap="round"/>
<path d="M753.837 41.8955C753.926 41.8955 754.012 41.931 754.075 41.9941C754.138 42.0573 754.175 42.143 754.175 42.2324C754.175 44.347 754.175 45.8994 754.335 47.0879C754.493 48.2656 754.803 49.0358 755.384 49.6162C755.964 50.1966 756.734 50.5068 757.913 50.665C759.102 50.8246 760.653 50.8252 762.768 50.8252C762.857 50.8252 762.943 50.8616 763.006 50.9248C763.069 50.988 763.104 51.0738 763.104 51.1631C763.104 51.2524 763.069 51.3382 763.006 51.4014C762.943 51.4645 762.857 51.5 762.768 51.5H762.705C760.898 51.5 759.458 51.4996 758.302 51.3887L757.823 51.334C756.649 51.1756 755.752 50.8628 755.045 50.2256L754.906 50.0938C754.27 49.457 753.927 48.6605 753.738 47.6318L753.666 47.1768C753.501 45.945 753.5 44.3597 753.5 42.2949V42.2324C753.5 42.1431 753.535 42.0573 753.599 41.9941C753.662 41.931 753.748 41.8956 753.837 41.8955ZM776.163 41.8955C776.252 41.8956 776.338 41.931 776.401 41.9941C776.465 42.0573 776.5 42.1431 776.5 42.2324V42.2949C776.5 44.1016 776.5 45.542 776.389 46.6982L776.334 47.1768C776.176 48.3515 775.863 49.248 775.226 49.9551L775.094 50.0938C774.457 50.7295 773.66 51.0727 772.632 51.2617L772.177 51.334C770.945 51.4993 769.36 51.5 767.295 51.5H767.232C767.143 51.5 767.057 51.4645 766.994 51.4014C766.931 51.3382 766.896 51.2524 766.896 51.1631C766.896 51.0738 766.931 50.988 766.994 50.9248C767.057 50.8616 767.143 50.8252 767.232 50.8252C769.347 50.8252 770.899 50.8246 772.088 50.665C773.266 50.5068 774.036 50.1966 774.616 49.6162C775.197 49.0358 775.507 48.2657 775.665 47.0869C775.825 45.8994 775.825 44.347 775.825 42.2324C775.825 42.143 775.862 42.0573 775.925 41.9941C775.988 41.931 776.074 41.8955 776.163 41.8955ZM762.705 28.5H762.768C762.857 28.5 762.943 28.5355 763.006 28.5986C763.069 28.6618 763.104 28.7476 763.104 28.8369C763.104 28.9262 763.069 29.012 763.006 29.0752C762.943 29.1384 762.857 29.1748 762.768 29.1748C760.917 29.1748 759.499 29.1752 758.376 29.2822L757.912 29.335C756.734 29.4932 755.964 29.8034 755.384 30.3838C754.803 30.9642 754.493 31.7343 754.335 32.9131C754.175 34.1016 754.175 35.653 754.175 37.7676C754.175 37.857 754.138 37.9427 754.075 38.0059C754.012 38.069 753.926 38.1045 753.837 38.1045C753.748 38.1044 753.662 38.069 753.599 38.0059C753.535 37.9427 753.5 37.8569 753.5 37.7676V37.7051C753.5 35.8984 753.5 34.458 753.611 33.3018L753.666 32.8232C753.824 31.6485 754.137 30.752 754.774 30.0449L754.906 29.9062C755.543 29.2705 756.34 28.9273 757.368 28.7383L757.823 28.666C759.055 28.5007 760.64 28.5 762.705 28.5ZM767.232 28.5H767.295C769.102 28.5 770.542 28.5004 771.698 28.6113L772.177 28.666C773.351 28.8244 774.248 29.1372 774.955 29.7744L775.094 29.9062C775.73 30.543 776.073 31.3395 776.262 32.3682L776.334 32.8232C776.499 34.055 776.5 35.6403 776.5 37.7051V37.7676C776.5 37.8569 776.465 37.9427 776.401 38.0059C776.338 38.069 776.252 38.1044 776.163 38.1045C776.074 38.1045 775.988 38.069 775.925 38.0059C775.862 37.9427 775.825 37.857 775.825 37.7676C775.825 35.9175 775.825 34.4987 775.718 33.376L775.665 32.9121C775.507 31.7344 775.197 30.9642 774.616 30.3838C774.036 29.8034 773.266 29.4932 772.087 29.335C770.899 29.1754 769.347 29.1748 767.232 29.1748C767.143 29.1748 767.057 29.1384 766.994 29.0752C766.931 29.012 766.896 28.9262 766.896 28.8369C766.896 28.7476 766.931 28.6618 766.994 28.5986C767.057 28.5355 767.143 28.5 767.232 28.5Z" fill="white" stroke="white"/>
<path d="M762.766 33.2441H767.231C768.298 33.2441 769.048 33.2451 769.614 33.3213C770.166 33.3956 770.47 33.5332 770.688 33.752C770.894 33.9577 771.027 34.2378 771.104 34.7275C771.164 35.1059 771.185 35.5744 771.192 36.1807L771.196 36.835V42.791C771.196 43.8576 771.195 44.6072 771.119 45.1738C771.045 45.726 770.907 46.0293 770.688 46.248C770.47 46.4668 770.166 46.6044 769.614 46.6787C769.048 46.7549 768.298 46.7559 767.231 46.7559H762.766C761.699 46.7559 760.949 46.7549 760.383 46.6787C759.831 46.6044 759.527 46.4668 759.309 46.248C759.09 46.0293 758.952 45.726 758.878 45.1738C758.802 44.6072 758.801 43.8576 758.801 42.791V36.835C758.802 35.897 758.813 35.2321 758.893 34.7275C758.97 34.2377 759.103 33.9577 759.309 33.752C759.527 33.5332 759.831 33.3956 760.383 33.3213C760.949 33.2451 761.699 33.2441 762.766 33.2441Z" fill="white" stroke="white"/>
<g filter="url(#filter7_d_1136_13406)">
<path d="M838.467 46.9987H843.534C843.699 45.4962 844.465 44.2562 845.709 42.9025C845.85 42.75 846.749 41.8187 846.855 41.6862C847.738 40.5833 848.291 39.2534 848.452 37.8497C848.612 36.446 848.372 35.0257 847.761 33.7522C847.149 32.4787 846.19 31.4038 844.994 30.6515C843.798 29.8991 842.414 29.4998 841.002 29.4995C839.589 29.4992 838.205 29.8979 837.009 30.6498C835.812 31.4016 834.853 32.4761 834.241 33.7493C833.629 35.0225 833.388 36.4428 833.548 37.8465C833.708 39.2503 834.26 40.5804 835.143 41.6837C835.25 41.8175 836.152 42.75 836.29 42.9012C837.535 44.2562 838.302 45.4962 838.467 46.9987ZM843.5 49.4987H838.5V50.7487H843.5V49.4987ZM833.193 43.2487C832.015 41.7779 831.278 40.0043 831.064 38.1325C830.851 36.2606 831.171 34.3665 831.987 32.6684C832.803 30.9703 834.082 29.5373 835.677 28.5345C837.272 27.5316 839.118 26.9997 841.002 27C842.886 27.0003 844.731 27.5328 846.326 28.5362C847.92 29.5396 849.199 30.973 850.015 32.6713C850.83 34.3697 851.149 36.2638 850.935 38.1356C850.721 40.0074 849.983 41.7807 848.805 43.2512C848.03 44.2162 846 45.7487 846 47.6237V50.7487C846 51.4118 845.737 52.0477 845.268 52.5165C844.799 52.9854 844.163 53.2487 843.5 53.2487H838.5C837.837 53.2487 837.201 52.9854 836.732 52.5165C836.264 52.0477 836 51.4118 836 50.7487V47.6237C836 45.7487 833.969 44.2162 833.193 43.2487ZM842.25 37.0037H845.375L839.75 44.5037V39.5037H836.625L842.25 31.9987V37.005V37.0037Z" fill="white"/>
</g>
<g filter="url(#filter8_d_1136_13406)">
<path d="M727.718 110.832C726.072 111.92 724.657 113.321 723.553 114.955M721.288 120.361C720.904 122.294 720.904 124.284 721.288 126.217M723.481 131.633C724.569 133.279 725.97 134.694 727.604 135.798M733.011 138.063C734.939 138.445 736.924 138.445 738.853 138.063M744.282 135.87C745.928 134.782 747.343 133.381 748.447 131.747M750.712 126.34C751.096 124.407 751.096 122.418 750.712 120.485M748.519 115.069C747.431 113.423 746.03 112.008 744.396 110.904M738.989 108.639C737.059 108.244 735.069 108.233 733.134 108.606M736 116.674L732.662 123.351H739.338L736 130.028" stroke="white" stroke-width="2" stroke-linecap="round" stroke-linejoin="round" shape-rendering="crispEdges"/>
</g>
<g filter="url(#filter9_d_1136_13406)">
<path d="M517.93 119.879L512.967 112.68L515.33 111L520.292 118.199L517.93 119.879ZM515.214 123.599L512.734 119.997L500.922 128.399L503.402 131.997L501.04 133.679L494.424 124.079L496.786 122.399L499.266 126L511.078 117.598L508.598 113.998L510.96 112.318L517.576 121.918L515.214 123.599ZM518.638 115.798L521 114.118L519.346 111.719L516.984 113.399L518.638 115.798ZM499.033 133.32L494.07 126.121L491.708 127.801L496.67 135L499.033 133.32ZM495.016 132.601L492.654 134.281L491 131.882L493.362 130.202L495.016 132.601Z" fill="white"/>
</g>
<g filter="url(#filter10_d_1136_13406)">
<path d="M662.861 135V131.565H644.22V135H637.624V125.909C637.662 124.239 638.363 122.652 639.572 121.494L639.575 121.492L637.667 121.18C637.202 121.103 636.78 120.865 636.474 120.508C636.169 120.15 636.001 119.696 636 119.227C636 118.939 636.063 118.654 636.185 118.393C636.306 118.132 636.484 117.9 636.705 117.714C636.926 117.528 637.185 117.393 637.464 117.317C637.743 117.241 638.035 117.226 638.32 117.275L638.309 117.273L641.58 117.804C641.632 117.814 641.68 117.827 641.723 117.841L641.716 117.839L643.823 112.5H650.553L651.056 110H657.332L657.834 112.5H664.176L666.284 117.843C666.325 117.829 666.367 117.818 666.409 117.809L666.418 117.808L669.692 117.277C670.21 117.194 670.74 117.318 671.167 117.622C671.594 117.926 671.884 118.386 671.973 118.901L671.975 118.912C672.058 119.427 671.934 119.955 671.629 120.38C671.325 120.805 670.864 121.093 670.348 121.182L670.336 121.184L667.688 121.616C668.818 122.763 669.469 124.296 669.507 125.902V129.771C669.507 129.906 669.492 130.036 669.462 130.161L669.464 130.149V134.998L662.861 135ZM658.798 127.066C658.799 127.415 658.939 127.75 659.187 127.997C659.435 128.244 659.771 128.384 660.122 128.385H665.444C665.795 128.385 666.132 128.246 666.38 127.998C666.629 127.751 666.768 127.416 666.768 127.066C666.768 126.716 666.629 126.381 666.38 126.133C666.132 125.886 665.795 125.747 665.444 125.747H660.124C659.773 125.748 659.437 125.888 659.189 126.135C658.941 126.382 658.801 126.717 658.8 127.066H658.798ZM640.235 127.066C640.236 127.415 640.376 127.75 640.624 127.997C640.872 128.244 641.208 128.384 641.559 128.385H646.881C647.232 128.385 647.569 128.246 647.817 127.998C648.065 127.751 648.205 127.416 648.205 127.066C648.205 126.716 648.065 126.381 647.817 126.133C647.569 125.886 647.232 125.747 646.881 125.747H641.56C641.209 125.748 640.873 125.888 640.625 126.134C640.377 126.381 640.237 126.716 640.236 127.065L640.235 127.066ZM643.345 120.183H664.543C664.579 120.183 664.613 120.189 664.647 120.189L662.554 114.871H645.446L643.345 120.183Z" fill="white"/>
</g>
<g filter="url(#filter11_d_1136_13406)">
<path d="M1174.89 621V618.389H1160.39V621H1155.26V614.091C1155.29 612.821 1155.84 611.615 1156.78 610.736L1156.78 610.734L1155.3 610.497C1154.94 610.439 1154.61 610.257 1154.37 609.986C1154.13 609.714 1154 609.369 1154 609.012C1154 608.793 1154.05 608.577 1154.14 608.379C1154.24 608.18 1154.38 608.004 1154.55 607.863C1154.72 607.721 1154.92 607.618 1155.14 607.561C1155.36 607.503 1155.58 607.492 1155.8 607.529L1155.8 607.527L1158.34 607.931C1158.38 607.939 1158.42 607.948 1158.45 607.959L1158.45 607.958L1160.08 603.9H1165.32L1165.71 602H1170.59L1170.98 603.9H1175.91L1177.55 607.961C1177.59 607.95 1177.62 607.942 1177.65 607.935L1177.66 607.934L1180.2 607.53C1180.61 607.468 1181.02 607.562 1181.35 607.793C1181.68 608.024 1181.91 608.373 1181.98 608.765L1181.98 608.773C1182.05 609.165 1181.95 609.566 1181.71 609.889C1181.47 610.211 1181.12 610.431 1180.72 610.498L1180.71 610.5L1178.65 610.828C1179.53 611.7 1180.03 612.865 1180.06 614.086V617.026C1180.06 617.128 1180.05 617.227 1180.03 617.322L1180.03 617.313V620.998L1174.89 621ZM1171.73 614.97C1171.73 615.236 1171.84 615.49 1172.03 615.678C1172.23 615.866 1172.49 615.971 1172.76 615.972H1176.9C1177.17 615.972 1177.44 615.867 1177.63 615.679C1177.82 615.491 1177.93 615.236 1177.93 614.97C1177.93 614.704 1177.82 614.449 1177.63 614.261C1177.44 614.074 1177.17 613.968 1176.9 613.968H1172.76C1172.49 613.969 1172.23 614.075 1172.04 614.262C1171.84 614.45 1171.73 614.705 1171.73 614.97H1171.73ZM1157.29 614.97C1157.29 615.236 1157.4 615.49 1157.6 615.678C1157.79 615.866 1158.05 615.971 1158.32 615.972H1162.46C1162.74 615.972 1163 615.867 1163.19 615.679C1163.38 615.491 1163.49 615.236 1163.49 614.97C1163.49 614.704 1163.38 614.449 1163.19 614.261C1163 614.074 1162.74 613.968 1162.46 613.968H1158.32C1158.05 613.969 1157.79 614.075 1157.6 614.262C1157.4 614.45 1157.3 614.704 1157.29 614.969L1157.29 614.97ZM1159.71 609.739H1176.2C1176.23 609.739 1176.25 609.744 1176.28 609.744L1174.65 605.702H1161.35L1159.71 609.739Z" fill="#55A193"/>
</g>
<g filter="url(#filter12_d_1136_13406)">
<path d="M819.5 133H822.5V121H813.5V133H816.5V124H819.5V133ZM798.5 133V110.5C798.5 110.102 798.658 109.721 798.939 109.439C799.221 109.158 799.602 109 800 109H821C821.398 109 821.779 109.158 822.061 109.439C822.342 109.721 822.5 110.102 822.5 110.5V118H825.5V133H827V136H797V133H798.5ZM804.5 121V124H807.5V121H804.5ZM804.5 127V130H807.5V127H804.5ZM804.5 115V118H807.5V115H804.5Z" fill="white"/>
</g>
<g filter="url(#filter13_df_1136_13406)">
<path d="M1017.75 573.889H1019.85V565.444H1013.55V573.889H1015.65V567.556H1017.75V573.889ZM1003.05 573.889V558.056C1003.05 557.776 1003.16 557.507 1003.36 557.309C1003.55 557.111 1003.82 557 1004.1 557H1018.8C1019.08 557 1019.35 557.111 1019.54 557.309C1019.74 557.507 1019.85 557.776 1019.85 558.056V563.333H1021.95V573.889H1023V576H1002V573.889H1003.05ZM1007.25 565.444V567.556H1009.35V565.444H1007.25ZM1007.25 569.667V571.778H1009.35V569.667H1007.25ZM1007.25 561.222V563.333H1009.35V561.222H1007.25Z" fill="#1D7161"/>
</g>
<g filter="url(#filter14_d_1136_13406)">
<path d="M430.439 113.793C431.429 115.098 432 116.64 432 118.293C432 119.946 431.429 121.488 430.439 122.793M415.56 113.793C414.572 115.098 414 116.64 414 118.293C414 119.946 414.571 121.488 415.562 122.793M435.474 110.793C437.07 112.938 438 115.518 438 118.293C438 121.068 437.07 123.648 435.474 125.793M410.526 110.793C408.93 112.938 408 115.518 408 118.293C408 121.068 408.93 123.648 410.526 125.793M421.5 121.293L415.5 137.793M430.5 137.793L424.5 121.293M417.75 131.793H428.25M426 118.293C426 119.089 425.684 119.852 425.121 120.414C424.559 120.977 423.796 121.293 423 121.293C422.204 121.293 421.441 120.977 420.879 120.414C420.316 119.852 420 119.089 420 118.293C420 117.497 420.316 116.734 420.879 116.172C421.441 115.609 422.204 115.293 423 115.293C423.796 115.293 424.559 115.609 425.121 116.172C425.684 116.734 426 117.497 426 118.293Z" stroke="white" stroke-width="1.5" stroke-linecap="round" stroke-linejoin="round" shape-rendering="crispEdges"/>
</g>
<g filter="url(#filter15_d_1136_13406)">
<path d="M1224.46 683.536C1225.18 684.262 1225.18 685.432 1224.46 686.146L1219.67 690.936L1222.28 702.252L1220.54 704L1215.77 694.851L1210.97 699.653L1211.41 702.695L1210.09 704L1207.93 700.084L1204 697.905L1205.3 696.575L1208.38 697.031L1213.14 692.266L1204 687.451L1205.75 685.715L1217.06 688.325L1221.85 683.536C1222.54 682.821 1223.77 682.821 1224.46 683.536Z" fill="#54A193"/>
</g>
<path d="M155.172 600.44H157.7V592.24H155.172V600.44ZM158.028 600.44H160.257V595.326C160.257 595.301 160.266 595.284 160.276 595.273C160.286 595.264 160.297 595.26 160.308 595.26H163.686C163.693 595.26 163.707 595.263 163.721 595.277C163.735 595.292 163.743 595.312 163.743 595.334V600.44H165.972V592.24H158.028V600.44ZM166.3 600.44H168.828V592.24H166.3V600.44ZM158.367 585.964L155.414 587.864L154.739 588.298L155.491 588.575L158.342 589.627L159.012 589.874L158.872 589.173C158.819 588.904 158.794 588.357 158.812 587.78C158.829 587.199 158.887 586.669 158.965 586.421L159.299 585.364L158.367 585.964ZM164.991 586.372C165.075 586.626 165.137 587.163 165.157 587.754C165.177 588.339 165.154 588.895 165.099 589.173L164.962 589.866L165.627 589.627L168.542 588.576L169.304 588.301L168.623 587.863L165.587 585.91L164.636 585.299L164.991 586.372ZM153.113 589.281L152.714 589.28C152.555 589.28 152.4 589.139 152.4 588.94C152.4 588.741 152.555 588.601 152.714 588.601H153.565L153.664 588.536L161.246 583.63L161.247 583.629C161.714 583.324 162.314 583.324 162.781 583.629L162.783 583.63L170.364 588.535L170.463 588.6H171.286C171.445 588.6 171.6 588.74 171.6 588.939C171.6 589.138 171.444 589.279 171.285 589.279H170.885V589.68L170.886 591.159V591.56H171.286C171.445 591.56 171.6 591.7 171.6 591.899C171.6 592.099 171.445 592.239 171.286 592.239H170.172V600.415L170.544 600.44C170.632 600.446 170.718 600.487 170.782 600.559C170.847 600.63 170.886 600.728 170.886 600.832V601.521H171.229V601.92C171.416 601.92 171.593 602.083 171.593 602.312V602.6H152.4V602.312C152.401 602.083 152.577 601.92 152.765 601.92V601.521H153.093V600.832C153.093 600.726 153.133 600.627 153.2 600.555C153.267 600.483 153.355 600.443 153.444 600.439L153.828 600.425V592.24H152.714C152.555 592.24 152.4 592.1 152.4 591.9C152.4 591.7 152.556 591.561 152.714 591.561H153.113V589.281Z" stroke="#38BBA2" stroke-width="0.8"/>
<g filter="url(#filter16_df_1136_13406)">
<path fill-rule="evenodd" clip-rule="evenodd" d="M330.541 526.249C330.491 526.246 330.438 526.245 330.381 526.245H328.148C326.319 526.245 324.754 527.685 324.754 529.562C324.754 531.439 326.32 532.879 328.148 532.879H330.381C330.438 532.88 330.492 532.879 330.542 532.876C330.918 532.853 331.273 532.694 331.541 532.429C331.808 532.165 331.971 531.811 331.997 531.436C332.001 531.383 332.001 531.325 332.001 531.272V527.852C332.001 527.799 332.001 527.742 331.997 527.689C331.971 527.313 331.808 526.96 331.541 526.695C331.273 526.43 330.917 526.271 330.541 526.249ZM327.952 530.447C328.423 530.447 328.804 530.05 328.804 529.562C328.804 529.074 328.423 528.678 327.952 528.678C327.481 528.678 327.1 529.074 327.1 529.562C327.1 530.05 327.481 530.447 327.952 530.447Z" fill="#66AB9E"/>
<path fill-rule="evenodd" clip-rule="evenodd" d="M330.733 534.383C330.764 534.382 330.794 534.388 330.822 534.401C330.85 534.414 330.874 534.433 330.894 534.457C330.913 534.481 330.926 534.509 330.932 534.539C330.938 534.569 330.937 534.6 330.929 534.629C330.752 535.259 330.47 535.797 330.018 536.248C329.355 536.911 328.516 537.204 327.479 537.344C326.471 537.479 325.184 537.479 323.558 537.479H321.69C320.064 537.479 318.776 537.479 317.769 537.344C316.732 537.204 315.893 536.91 315.23 536.249C314.569 535.586 314.275 534.747 314.135 533.71C314 532.702 314 531.415 314 529.789V529.69C314 528.064 314 526.776 314.135 525.768C314.275 524.731 314.569 523.892 315.23 523.229C315.893 522.568 316.732 522.274 317.769 522.134C318.777 522 320.064 522 321.69 522H323.558C325.184 522 326.472 522 327.479 522.135C328.516 522.275 329.355 522.569 330.018 523.23C330.47 523.683 330.752 524.22 330.929 524.85C330.937 524.879 330.938 524.91 330.932 524.94C330.926 524.97 330.913 524.999 330.894 525.022C330.874 525.046 330.85 525.066 330.822 525.078C330.794 525.091 330.764 525.097 330.733 525.096H328.501C325.991 525.096 323.78 527.077 323.78 529.74C323.78 532.402 325.991 534.383 328.501 534.383H330.733ZM317.317 525.538C317.141 525.538 316.972 525.608 316.848 525.732C316.723 525.857 316.654 526.026 316.654 526.201C316.654 526.377 316.723 526.546 316.848 526.671C316.972 526.795 317.141 526.865 317.317 526.865H320.855C321.031 526.865 321.2 526.795 321.324 526.671C321.449 526.546 321.518 526.377 321.518 526.201C321.518 526.026 321.449 525.857 321.324 525.732C321.2 525.608 321.031 525.538 320.855 525.538H317.317Z" fill="#66AB9E"/>
</g>
<g filter="url(#filter17_d_1136_13406)">
<path d="M154.075 658C151.713 657.988 149.412 660.263 150.463 663.088H146.5C145.837 663.088 145.201 663.351 144.732 663.82C144.263 664.289 144 664.925 144 665.588V668.088C144 668.419 144.132 668.737 144.366 668.971C144.601 669.206 144.918 669.338 145.25 669.338H156.5V665.588H159V669.338H170.25C170.582 669.338 170.899 669.206 171.134 668.971C171.368 668.737 171.5 668.419 171.5 668.088V665.588C171.5 664.925 171.237 664.289 170.768 663.82C170.299 663.351 169.663 663.088 169 663.088H165.038C166.5 659 161 656.113 158.462 659.638L157.75 660.588L157.038 659.613C156.25 658.5 155.163 658.013 154.075 658ZM154 660.588C155.113 660.588 155.675 661.938 154.887 662.725C154.1 663.513 152.75 662.95 152.75 661.838C152.75 661.506 152.882 661.188 153.116 660.954C153.351 660.719 153.668 660.588 154 660.588ZM161.5 660.588C162.612 660.588 163.175 661.938 162.388 662.725C161.6 663.513 160.25 662.95 160.25 661.838C160.25 661.506 160.382 661.188 160.616 660.954C160.851 660.719 161.168 660.588 161.5 660.588ZM145.25 670.588V680.588C145.25 681.251 145.513 681.886 145.982 682.355C146.451 682.824 147.087 683.088 147.75 683.088H167.75C168.413 683.088 169.049 682.824 169.518 682.355C169.987 681.886 170.25 681.251 170.25 680.588V670.588H159V680.588H156.5V670.588H145.25Z" fill="#66AB9E"/>
</g>
<g filter="url(#filter18_d_1136_13406)">
<path d="M94.4665 785.999H99.534C99.699 784.496 100.465 783.256 101.709 781.902C101.85 781.75 102.749 780.819 102.855 780.686C103.738 779.583 104.291 778.253 104.452 776.85C104.612 775.446 104.372 774.026 103.761 772.752C103.149 771.479 102.19 770.404 100.994 769.651C99.7984 768.899 98.4144 768.5 97.0016 768.499C95.5888 768.499 94.2047 768.898 93.0086 769.65C91.8125 770.402 90.8531 771.476 90.2408 772.749C89.6286 774.023 89.3884 775.443 89.548 776.847C89.7076 778.25 90.2604 779.58 91.1428 780.684C91.2503 780.817 92.1515 781.75 92.2903 781.901C93.5353 783.256 94.3015 784.496 94.4665 785.999ZM99.5003 788.499H94.5003V789.749H99.5003V788.499ZM89.1928 782.249C88.0155 780.778 87.2777 779.004 87.0643 777.132C86.851 775.261 87.1708 773.367 87.9868 771.668C88.8029 769.97 90.082 768.537 91.6769 767.534C93.2719 766.532 95.1176 766 97.0016 766C98.8856 766 100.731 766.533 102.326 767.536C103.92 768.54 105.199 769.973 106.015 771.671C106.83 773.37 107.149 775.264 106.935 777.136C106.721 779.007 105.983 780.781 104.805 782.251C104.03 783.216 102 784.749 102 786.624V789.749C102 790.412 101.737 791.048 101.268 791.517C100.799 791.985 100.163 792.249 99.5003 792.249H94.5003C93.8372 792.249 93.2013 791.985 92.7325 791.517C92.2636 791.048 92.0003 790.412 92.0003 789.749V786.624C92.0003 784.749 89.969 783.216 89.1928 782.249ZM98.2503 776.004H101.375L95.7503 783.504V778.504H92.6253L98.2503 770.999V776.005V776.004Z" fill="#66AB9E"/>
</g>
<defs>
<filter id="filter0_d_1136_13406" x="354.25" y="14.25" width="59.5" height="53.5" filterUnits="userSpaceOnUse" color-interpolation-filters="sRGB">
<feFlood flood-opacity="0" result="BackgroundImageFix"/>
<feColorMatrix in="SourceAlpha" type="matrix" values="0 0 0 0 0 0 0 0 0 0 0 0 0 0 0 0 0 0 127 0" result="hardAlpha"/>
<feOffset dy="1"/>
<feGaussianBlur stdDeviation="7"/>
<feComposite in2="hardAlpha" operator="out"/>
<feColorMatrix type="matrix" values="0 0 0 0 1 0 0 0 0 1 0 0 0 0 1 0 0 0 0.55 0"/>
<feBlend mode="normal" in2="BackgroundImageFix" result="effect1_dropShadow_1136_13406"/>
<feBlend mode="normal" in="SourceGraphic" in2="effect1_dropShadow_1136_13406" result="shape"/>
</filter>
<filter id="filter1_d_1136_13406" x="431" y="12" width="58" height="58" filterUnits="userSpaceOnUse" color-interpolation-filters="sRGB">
<feFlood flood-opacity="0" result="BackgroundImageFix"/>
<feColorMatrix in="SourceAlpha" type="matrix" values="0 0 0 0 0 0 0 0 0 0 0 0 0 0 0 0 0 0 127 0" result="hardAlpha"/>
<feOffset dy="1"/>
<feGaussianBlur stdDeviation="7"/>
<feComposite in2="hardAlpha" operator="out"/>
<feColorMatrix type="matrix" values="0 0 0 0 1 0 0 0 0 1 0 0 0 0 1 0 0 0 0.55 0"/>
<feBlend mode="normal" in2="BackgroundImageFix" result="effect1_dropShadow_1136_13406"/>
<feBlend mode="normal" in="SourceGraphic" in2="effect1_dropShadow_1136_13406" result="shape"/>
</filter>
<filter id="filter2_d_1136_13406" x="550" y="98" width="55" height="55" filterUnits="userSpaceOnUse" color-interpolation-filters="sRGB">
<feFlood flood-opacity="0" result="BackgroundImageFix"/>
<feColorMatrix in="SourceAlpha" type="matrix" values="0 0 0 0 0 0 0 0 0 0 0 0 0 0 0 0 0 0 127 0" result="hardAlpha"/>
<feOffset dy="1"/>
<feGaussianBlur stdDeviation="7"/>
<feComposite in2="hardAlpha" operator="out"/>
<feColorMatrix type="matrix" values="0 0 0 0 1 0 0 0 0 1 0 0 0 0 1 0 0 0 0.55 0"/>
<feBlend mode="normal" in2="BackgroundImageFix" result="effect1_dropShadow_1136_13406"/>
<feBlend mode="normal" in="SourceGraphic" in2="effect1_dropShadow_1136_13406" result="shape"/>
</filter>
<filter id="filter3_d_1136_13406" x="510" y="555" width="200" height="117" filterUnits="userSpaceOnUse" color-interpolation-filters="sRGB">
<feFlood flood-opacity="0" result="BackgroundImageFix"/>
<feColorMatrix in="SourceAlpha" type="matrix" values="0 0 0 0 0 0 0 0 0 0 0 0 0 0 0 0 0 0 127 0" result="hardAlpha"/>
<feOffset dy="1"/>
<feGaussianBlur stdDeviation="7"/>
<feComposite in2="hardAlpha" operator="out"/>
<feColorMatrix type="matrix" values="0 0 0 0 1 0 0 0 0 1 0 0 0 0 1 0 0 0 0.65 0"/>
<feBlend mode="normal" in2="BackgroundImageFix" result="effect1_dropShadow_1136_13406"/>
<feBlend mode="normal" in="SourceGraphic" in2="effect1_dropShadow_1136_13406" result="shape"/>
</filter>
<filter id="filter4_f_1136_13406" x="1060.6" y="552.6" width="24.8" height="24.8" filterUnits="userSpaceOnUse" color-interpolation-filters="sRGB">
<feFlood flood-opacity="0" result="BackgroundImageFix"/>
<feBlend mode="normal" in="SourceGraphic" in2="BackgroundImageFix" result="shape"/>
<feGaussianBlur stdDeviation="0.2" result="effect1_foregroundBlur_1136_13406"/>
</filter>
<filter id="filter5_d_1136_13406" x="1035" y="782" width="58" height="52" filterUnits="userSpaceOnUse" color-interpolation-filters="sRGB">
<feFlood flood-opacity="0" result="BackgroundImageFix"/>
<feColorMatrix in="SourceAlpha" type="matrix" values="0 0 0 0 0 0 0 0 0 0 0 0 0 0 0 0 0 0 127 0" result="hardAlpha"/>
<feOffset dy="1"/>
<feGaussianBlur stdDeviation="7"/>
<feComposite in2="hardAlpha" operator="out"/>
<feColorMatrix type="matrix" values="0 0 0 0 1 0 0 0 0 1 0 0 0 0 1 0 0 0 0.55 0"/>
<feBlend mode="normal" in2="BackgroundImageFix" result="effect1_dropShadow_1136_13406"/>
<feBlend mode="normal" in="SourceGraphic" in2="effect1_dropShadow_1136_13406" result="shape"/>
</filter>
<filter id="filter6_d_1136_13406" x="589" y="14" width="55.5" height="53.0874" filterUnits="userSpaceOnUse" color-interpolation-filters="sRGB">
<feFlood flood-opacity="0" result="BackgroundImageFix"/>
<feColorMatrix in="SourceAlpha" type="matrix" values="0 0 0 0 0 0 0 0 0 0 0 0 0 0 0 0 0 0 127 0" result="hardAlpha"/>
<feOffset dy="1"/>
<feGaussianBlur stdDeviation="7"/>
<feComposite in2="hardAlpha" operator="out"/>
<feColorMatrix type="matrix" values="0 0 0 0 1 0 0 0 0 1 0 0 0 0 1 0 0 0 0.55 0"/>
<feBlend mode="normal" in2="BackgroundImageFix" result="effect1_dropShadow_1136_13406"/>
<feBlend mode="normal" in="SourceGraphic" in2="effect1_dropShadow_1136_13406" result="shape"/>
</filter>
<filter id="filter7_d_1136_13406" x="817" y="14" width="48" height="54.2485" filterUnits="userSpaceOnUse" color-interpolation-filters="sRGB">
<feFlood flood-opacity="0" result="BackgroundImageFix"/>
<feColorMatrix in="SourceAlpha" type="matrix" values="0 0 0 0 0 0 0 0 0 0 0 0 0 0 0 0 0 0 127 0" result="hardAlpha"/>
<feOffset dy="1"/>
<feGaussianBlur stdDeviation="7"/>
<feComposite in2="hardAlpha" operator="out"/>
<feColorMatrix type="matrix" values="0 0 0 0 1 0 0 0 0 1 0 0 0 0 1 0 0 0 0.55 0"/>
<feBlend mode="normal" in2="BackgroundImageFix" result="effect1_dropShadow_1136_13406"/>
<feBlend mode="normal" in="SourceGraphic" in2="effect1_dropShadow_1136_13406" result="shape"/>
</filter>
<filter id="filter8_d_1136_13406" x="706" y="94.334" width="60" height="60.0156" filterUnits="userSpaceOnUse" color-interpolation-filters="sRGB">
<feFlood flood-opacity="0" result="BackgroundImageFix"/>
<feColorMatrix in="SourceAlpha" type="matrix" values="0 0 0 0 0 0 0 0 0 0 0 0 0 0 0 0 0 0 127 0" result="hardAlpha"/>
<feOffset dy="1"/>
<feGaussianBlur stdDeviation="7"/>
<feComposite in2="hardAlpha" operator="out"/>
<feColorMatrix type="matrix" values="0 0 0 0 1 0 0 0 0 1 0 0 0 0 1 0 0 0 0.55 0"/>
<feBlend mode="normal" in2="BackgroundImageFix" result="effect1_dropShadow_1136_13406"/>
<feBlend mode="normal" in="SourceGraphic" in2="effect1_dropShadow_1136_13406" result="shape"/>
</filter>
<filter id="filter9_d_1136_13406" x="477" y="98" width="58" height="52" filterUnits="userSpaceOnUse" color-interpolation-filters="sRGB">
<feFlood flood-opacity="0" result="BackgroundImageFix"/>
<feColorMatrix in="SourceAlpha" type="matrix" values="0 0 0 0 0 0 0 0 0 0 0 0 0 0 0 0 0 0 127 0" result="hardAlpha"/>
<feOffset dy="1"/>
<feGaussianBlur stdDeviation="7"/>
<feComposite in2="hardAlpha" operator="out"/>
<feColorMatrix type="matrix" values="0 0 0 0 1 0 0 0 0 1 0 0 0 0 1 0 0 0 0.55 0"/>
<feBlend mode="normal" in2="BackgroundImageFix" result="effect1_dropShadow_1136_13406"/>
<feBlend mode="normal" in="SourceGraphic" in2="effect1_dropShadow_1136_13406" result="shape"/>
</filter>
<filter id="filter10_d_1136_13406" x="622" y="97" width="64" height="53" filterUnits="userSpaceOnUse" color-interpolation-filters="sRGB">
<feFlood flood-opacity="0" result="BackgroundImageFix"/>
<feColorMatrix in="SourceAlpha" type="matrix" values="0 0 0 0 0 0 0 0 0 0 0 0 0 0 0 0 0 0 127 0" result="hardAlpha"/>
<feOffset dy="1"/>
<feGaussianBlur stdDeviation="7"/>
<feComposite in2="hardAlpha" operator="out"/>
<feColorMatrix type="matrix" values="0 0 0 0 1 0 0 0 0 1 0 0 0 0 1 0 0 0 0.55 0"/>
<feBlend mode="normal" in2="BackgroundImageFix" result="effect1_dropShadow_1136_13406"/>
<feBlend mode="normal" in="SourceGraphic" in2="effect1_dropShadow_1136_13406" result="shape"/>
</filter>
<filter id="filter11_d_1136_13406" x="1140" y="589" width="56" height="47" filterUnits="userSpaceOnUse" color-interpolation-filters="sRGB">
<feFlood flood-opacity="0" result="BackgroundImageFix"/>
<feColorMatrix in="SourceAlpha" type="matrix" values="0 0 0 0 0 0 0 0 0 0 0 0 0 0 0 0 0 0 127 0" result="hardAlpha"/>
<feOffset dy="1"/>
<feGaussianBlur stdDeviation="7"/>
<feComposite in2="hardAlpha" operator="out"/>
<feColorMatrix type="matrix" values="0 0 0 0 1 0 0 0 0 1 0 0 0 0 1 0 0 0 0.55 0"/>
<feBlend mode="normal" in2="BackgroundImageFix" result="effect1_dropShadow_1136_13406"/>
<feBlend mode="normal" in="SourceGraphic" in2="effect1_dropShadow_1136_13406" result="shape"/>
</filter>
<filter id="filter12_d_1136_13406" x="783" y="96" width="58" height="55" filterUnits="userSpaceOnUse" color-interpolation-filters="sRGB">
<feFlood flood-opacity="0" result="BackgroundImageFix"/>
<feColorMatrix in="SourceAlpha" type="matrix" values="0 0 0 0 0 0 0 0 0 0 0 0 0 0 0 0 0 0 127 0" result="hardAlpha"/>
<feOffset dy="1"/>
<feGaussianBlur stdDeviation="7"/>
<feComposite in2="hardAlpha" operator="out"/>
<feColorMatrix type="matrix" values="0 0 0 0 1 0 0 0 0 1 0 0 0 0 1 0 0 0 0.55 0"/>
<feBlend mode="normal" in2="BackgroundImageFix" result="effect1_dropShadow_1136_13406"/>
<feBlend mode="normal" in="SourceGraphic" in2="effect1_dropShadow_1136_13406" result="shape"/>
</filter>
<filter id="filter13_df_1136_13406" x="988" y="544" width="49" height="47" filterUnits="userSpaceOnUse" color-interpolation-filters="sRGB">
<feFlood flood-opacity="0" result="BackgroundImageFix"/>
<feColorMatrix in="SourceAlpha" type="matrix" values="0 0 0 0 0 0 0 0 0 0 0 0 0 0 0 0 0 0 127 0" result="hardAlpha"/>
<feOffset dy="1"/>
<feGaussianBlur stdDeviation="7"/>
<feComposite in2="hardAlpha" operator="out"/>
<feColorMatrix type="matrix" values="0 0 0 0 1 0 0 0 0 1 0 0 0 0 1 0 0 0 0.55 0"/>
<feBlend mode="normal" in2="BackgroundImageFix" result="effect1_dropShadow_1136_13406"/>
<feBlend mode="normal" in="SourceGraphic" in2="effect1_dropShadow_1136_13406" result="shape"/>
<feGaussianBlur stdDeviation="0.25" result="effect2_foregroundBlur_1136_13406"/>
</filter>
<filter id="filter14_d_1136_13406" x="393.25" y="97.043" width="59.5" height="56.5" filterUnits="userSpaceOnUse" color-interpolation-filters="sRGB">
<feFlood flood-opacity="0" result="BackgroundImageFix"/>
<feColorMatrix in="SourceAlpha" type="matrix" values="0 0 0 0 0 0 0 0 0 0 0 0 0 0 0 0 0 0 127 0" result="hardAlpha"/>
<feOffset dy="1"/>
<feGaussianBlur stdDeviation="7"/>
<feComposite in2="hardAlpha" operator="out"/>
<feColorMatrix type="matrix" values="0 0 0 0 1 0 0 0 0 1 0 0 0 0 1 0 0 0 0.55 0"/>
<feBlend mode="normal" in2="BackgroundImageFix" result="effect1_dropShadow_1136_13406"/>
<feBlend mode="normal" in="SourceGraphic" in2="effect1_dropShadow_1136_13406" result="shape"/>
</filter>
<filter id="filter15_d_1136_13406" x="1190" y="670" width="49" height="49" filterUnits="userSpaceOnUse" color-interpolation-filters="sRGB">
<feFlood flood-opacity="0" result="BackgroundImageFix"/>
<feColorMatrix in="SourceAlpha" type="matrix" values="0 0 0 0 0 0 0 0 0 0 0 0 0 0 0 0 0 0 127 0" result="hardAlpha"/>
<feOffset dy="1"/>
<feGaussianBlur stdDeviation="7"/>
<feComposite in2="hardAlpha" operator="out"/>
<feColorMatrix type="matrix" values="0 0 0 0 1 0 0 0 0 1 0 0 0 0 1 0 0 0 0.55 0"/>
<feBlend mode="normal" in2="BackgroundImageFix" result="effect1_dropShadow_1136_13406"/>
<feBlend mode="normal" in="SourceGraphic" in2="effect1_dropShadow_1136_13406" result="shape"/>
</filter>
<filter id="filter16_df_1136_13406" x="300" y="509" width="46" height="43.479" filterUnits="userSpaceOnUse" color-interpolation-filters="sRGB">
<feFlood flood-opacity="0" result="BackgroundImageFix"/>
<feColorMatrix in="SourceAlpha" type="matrix" values="0 0 0 0 0 0 0 0 0 0 0 0 0 0 0 0 0 0 127 0" result="hardAlpha"/>
<feOffset dy="1"/>
<feGaussianBlur stdDeviation="7"/>
<feComposite in2="hardAlpha" operator="out"/>
<feColorMatrix type="matrix" values="0 0 0 0 1 0 0 0 0 1 0 0 0 0 1 0 0 0 0.55 0"/>
<feBlend mode="normal" in2="BackgroundImageFix" result="effect1_dropShadow_1136_13406"/>
<feBlend mode="normal" in="SourceGraphic" in2="effect1_dropShadow_1136_13406" result="shape"/>
<feGaussianBlur stdDeviation="0.2" result="effect2_foregroundBlur_1136_13406"/>
</filter>
<filter id="filter17_d_1136_13406" x="130" y="645" width="55.5" height="53.0874" filterUnits="userSpaceOnUse" color-interpolation-filters="sRGB">
<feFlood flood-opacity="0" result="BackgroundImageFix"/>
<feColorMatrix in="SourceAlpha" type="matrix" values="0 0 0 0 0 0 0 0 0 0 0 0 0 0 0 0 0 0 127 0" result="hardAlpha"/>
<feOffset dy="1"/>
<feGaussianBlur stdDeviation="7"/>
<feComposite in2="hardAlpha" operator="out"/>
<feColorMatrix type="matrix" values="0 0 0 0 1 0 0 0 0 1 0 0 0 0 1 0 0 0 0.55 0"/>
<feBlend mode="normal" in2="BackgroundImageFix" result="effect1_dropShadow_1136_13406"/>
<feBlend mode="normal" in="SourceGraphic" in2="effect1_dropShadow_1136_13406" result="shape"/>
</filter>
<filter id="filter18_d_1136_13406" x="73" y="753" width="48" height="54.2485" filterUnits="userSpaceOnUse" color-interpolation-filters="sRGB">
<feFlood flood-opacity="0" result="BackgroundImageFix"/>
<feColorMatrix in="SourceAlpha" type="matrix" values="0 0 0 0 0 0 0 0 0 0 0 0 0 0 0 0 0 0 127 0" result="hardAlpha"/>
<feOffset dy="1"/>
<feGaussianBlur stdDeviation="7"/>
<feComposite in2="hardAlpha" operator="out"/>
<feColorMatrix type="matrix" values="0 0 0 0 1 0 0 0 0 1 0 0 0 0 1 0 0 0 0.55 0"/>
<feBlend mode="normal" in2="BackgroundImageFix" result="effect1_dropShadow_1136_13406"/>
<feBlend mode="normal" in="SourceGraphic" in2="effect1_dropShadow_1136_13406" result="shape"/>
</filter>
<linearGradient id="paint0_linear_1136_13406" x1="724.306" y1="126.797" x2="724.306" y2="505.875" gradientUnits="userSpaceOnUse">
<stop stop-color="#185B4E"/>
<stop offset="1" stop-color="#0C2621" stop-opacity="0"/>
</linearGradient>
<linearGradient id="paint1_linear_1136_13406" x1="675.08" y1="150.02" x2="675.08" y2="518.852" gradientUnits="userSpaceOnUse">
<stop stop-color="#185B4E"/>
<stop offset="1" stop-color="#0C2621" stop-opacity="0"/>
</linearGradient>
<linearGradient id="paint2_linear_1136_13406" x1="617.573" y1="171.194" x2="617.573" y2="541.393" gradientUnits="userSpaceOnUse">
<stop stop-color="#2E8C7A"/>
<stop offset="1" stop-color="#17685B" stop-opacity="0"/>
</linearGradient>
<linearGradient id="paint3_linear_1136_13406" x1="508.817" y1="173.926" x2="508.817" y2="550.272" gradientUnits="userSpaceOnUse">
<stop stop-color="#2E8C7A"/>
<stop offset="1" stop-color="#176863" stop-opacity="0"/>
</linearGradient>
<linearGradient id="paint4_linear_1136_13406" x1="556.161" y1="171.194" x2="556.161" y2="563.249" gradientUnits="userSpaceOnUse">
<stop stop-color="#2E8C7A"/>
<stop offset="1" stop-color="#0B3826" stop-opacity="0"/>
</linearGradient>
<linearGradient id="paint5_linear_1136_13406" x1="605.451" y1="179.389" x2="605.451" y2="585.106" gradientUnits="userSpaceOnUse">
<stop stop-color="#2E8C7A"/>
<stop offset="1" stop-color="#17685F" stop-opacity="0"/>
</linearGradient>
<radialGradient id="paint6_radial_1136_13406" cx="0" cy="0" r="1" gradientUnits="userSpaceOnUse" gradientTransform="translate(618 694.293) rotate(87.7404) scale(214.67 357.593)">
<stop stop-color="#18AE72"/>
<stop offset="1" stop-color="#88DFB8" stop-opacity="0"/>
</radialGradient>
<linearGradient id="paint7_linear_1136_13406" x1="383.777" y1="10" x2="383.777" y2="70.1061" gradientUnits="userSpaceOnUse">
<stop stop-color="#0C2621"/>
<stop offset="1" stop-color="#2E8C7A"/>
</linearGradient>
<linearGradient id="paint8_linear_1136_13406" x1="459.977" y1="10" x2="459.977" y2="70.1061" gradientUnits="userSpaceOnUse">
<stop stop-color="#0C2621"/>
<stop offset="1" stop-color="#2E8C7A"/>
</linearGradient>
<linearGradient id="paint9_linear_1136_13406" x1="536.18" y1="10" x2="536.18" y2="70.1061" gradientUnits="userSpaceOnUse">
<stop stop-color="#0C2621"/>
<stop offset="1" stop-color="#2E8C7A"/>
</linearGradient>
<linearGradient id="paint10_linear_1136_13406" x1="616.535" y1="10" x2="616.535" y2="70.1061" gradientUnits="userSpaceOnUse">
<stop stop-color="#0C2621"/>
<stop offset="1" stop-color="#2E8C7A"/>
</linearGradient>
<linearGradient id="paint11_linear_1136_13406" x1="422.57" y1="93.3291" x2="422.57" y2="153.435" gradientUnits="userSpaceOnUse">
<stop stop-color="#0C2621"/>
<stop offset="1" stop-color="#2E8C7A"/>
</linearGradient>
<linearGradient id="paint12_linear_1136_13406" x1="764.781" y1="10" x2="764.781" y2="70.1061" gradientUnits="userSpaceOnUse">
<stop stop-color="#0C2621"/>
<stop offset="1" stop-color="#2E8C7A"/>
</linearGradient>
<linearGradient id="paint13_linear_1136_13406" x1="840.984" y1="10" x2="840.984" y2="70.1061" gradientUnits="userSpaceOnUse">
<stop stop-color="#0C2621"/>
<stop offset="1" stop-color="#2E8C7A"/>
</linearGradient>
<linearGradient id="paint14_linear_1136_13406" x1="688.582" y1="10" x2="688.582" y2="70.1061" gradientUnits="userSpaceOnUse">
<stop stop-color="#0C2621"/>
<stop offset="1" stop-color="#2E8C7A"/>
</linearGradient>
<linearGradient id="paint15_linear_1136_13406" x1="577.742" y1="93.3291" x2="577.742" y2="153.435" gradientUnits="userSpaceOnUse">
<stop stop-color="#0C2621"/>
<stop offset="1" stop-color="#2E8C7A"/>
</linearGradient>
<linearGradient id="paint16_linear_1136_13406" x1="653.945" y1="93.3291" x2="653.945" y2="153.435" gradientUnits="userSpaceOnUse">
<stop stop-color="#0C2621"/>
<stop offset="1" stop-color="#2E8C7A"/>
</linearGradient>
<linearGradient id="paint17_linear_1136_13406" x1="735.687" y1="93.3291" x2="735.687" y2="153.435" gradientUnits="userSpaceOnUse">
<stop stop-color="#0C2621"/>
<stop offset="1" stop-color="#2E8C7A"/>
</linearGradient>
<linearGradient id="paint18_linear_1136_13406" x1="811.887" y1="93.3291" x2="811.887" y2="153.435" gradientUnits="userSpaceOnUse">
<stop stop-color="#0C2621"/>
<stop offset="1" stop-color="#2E8C7A"/>
</linearGradient>
<linearGradient id="paint19_linear_1136_13406" x1="505.699" y1="93.3291" x2="505.699" y2="153.435" gradientUnits="userSpaceOnUse">
<stop stop-color="#0C2621"/>
<stop offset="1" stop-color="#2E8C7A"/>
</linearGradient>
<linearGradient id="paint20_linear_1136_13406" x1="609.607" y1="489.482" x2="609.607" y2="735.371" gradientUnits="userSpaceOnUse">
<stop stop-color="#2E8C7A"/>
<stop offset="1" stop-color="#0C2621"/>
</linearGradient>
<linearGradient id="paint21_linear_1136_13406" x1="610.302" y1="501.777" x2="610.302" y2="869.244" gradientUnits="userSpaceOnUse">
<stop stop-opacity="0"/>
<stop offset="0.479167" stop-color="#1C7160"/>
</linearGradient>
<linearGradient id="paint22_linear_1136_13406" x1="616.537" y1="501.777" x2="616.537" y2="869.244" gradientUnits="userSpaceOnUse">
<stop stop-opacity="0"/>
<stop offset="0.479167" stop-color="#1C7160"/>
</linearGradient>
<linearGradient id="paint23_linear_1136_13406" x1="631.085" y1="501.777" x2="631.085" y2="869.244" gradientUnits="userSpaceOnUse">
<stop stop-opacity="0"/>
<stop offset="0.479167" stop-color="#1C7160"/>
</linearGradient>
<linearGradient id="paint24_linear_1136_13406" x1="616.536" y1="403.422" x2="616.536" y2="779.085" gradientUnits="userSpaceOnUse">
<stop offset="0.197917" stop-opacity="0"/>
<stop offset="1" stop-color="#27D5B4"/>
</linearGradient>
<linearGradient id="paint25_linear_1136_13406" x1="615.842" y1="527.731" x2="615.842" y2="751.763" gradientUnits="userSpaceOnUse">
<stop offset="0.197917" stop-opacity="0"/>
<stop offset="1" stop-color="#2E8C7A"/>
</linearGradient>
</defs>
</svg>
