<svg width="29" height="30" viewBox="0 0 29 30" fill="none" xmlns="http://www.w3.org/2000/svg">
<path d="M16.2251 0.0251694C15.8735 0.0954819 4.51104 4.4197 4.11729 4.63064C3.35088 5.03845 2.63369 5.89626 2.29619 6.81736C2.13447 7.25329 2.12744 7.26033 2.11338 11.5775C2.09229 14.9595 2.11338 15.9369 2.17666 16.0775C2.22588 16.176 2.39463 16.3166 2.54229 16.3869C2.78135 16.5064 2.85869 16.5135 3.10479 16.4361C5.35478 15.7822 7.49932 15.9791 9.33447 17.0056C10.7899 17.8283 12.0767 19.2627 12.6813 20.7533C13.0892 21.7447 13.2157 22.3353 13.2509 23.4322C13.2931 24.5713 13.2017 25.1619 12.8079 26.308C12.5126 27.1869 12.5056 27.3978 12.7728 27.6931L12.9767 27.9252H18.6298C23.8821 27.9252 24.304 27.9181 24.7259 27.7986C26.8774 27.1869 28.3681 25.5135 28.6634 23.3549C28.811 22.3002 28.7337 21.8853 28.2907 21.4494C27.9181 21.0697 27.6438 20.9994 26.561 20.9994C25.2462 20.9994 24.536 20.7674 23.8892 20.1275C23.2493 19.5017 23.0173 18.9111 23.0595 17.99C23.0876 17.2306 23.2985 16.7385 23.8259 16.183C24.5149 15.4588 25.204 15.2408 26.8282 15.2338C27.5524 15.2338 27.7353 15.2127 27.9673 15.0931C28.572 14.7838 28.7829 14.2213 28.7196 13.0963C28.6282 11.6197 28.1642 10.572 27.1587 9.57361C26.4415 8.85642 25.9845 8.56111 25.1056 8.2447L24.4868 8.02673L21.9415 8.00564L19.3962 7.98454L19.3751 4.9822L19.354 1.97986L19.122 1.50876C18.8337 0.918139 18.2782 0.397825 17.7157 0.186888C17.3149 0.0392323 16.5626 -0.0451431 16.2251 0.0251694ZM17.104 2.26111L17.2798 2.42986V5.21423V7.99158H12.0274C6.44463 7.99158 6.36025 7.99861 5.46025 8.33611C5.24932 8.42048 4.89072 8.59626 4.66572 8.72986C4.44072 8.86345 4.23682 8.97595 4.22275 8.97595C4.20166 8.97595 4.20166 8.65251 4.21572 8.25173C4.25088 7.40798 4.37041 7.10564 4.8626 6.68376C5.12275 6.45173 5.57275 6.26189 7.82978 5.41111C9.29932 4.85564 11.8728 3.88533 13.5532 3.25251C15.2337 2.61267 16.6821 2.09236 16.7735 2.09236C16.8649 2.08533 17.0126 2.16267 17.104 2.26111ZM18.7423 13.0541C18.8688 13.1314 19.0306 13.2931 19.1079 13.4197C19.3892 13.8838 19.2204 14.5166 18.7423 14.8119C18.5173 14.9455 18.3767 14.9525 14.6501 14.9525H10.7899L10.4876 14.6431C10.1923 14.3549 10.1782 14.3197 10.1782 13.933C10.1782 13.5463 10.1923 13.5111 10.4876 13.2228L10.7899 12.9135H14.6501C18.3767 12.9135 18.5173 12.9205 18.7423 13.0541Z" fill="url(#paint0_linear_1183_421)"/>
<path d="M25.5604 16.7809C24.9557 16.9637 24.576 17.4278 24.5338 18.0325C24.5057 18.5458 24.7096 18.9747 25.1385 19.277L25.4479 19.488L26.7838 19.5091C27.733 19.5231 28.1901 19.5091 28.3377 19.4458C28.6471 19.3122 28.7385 19.0169 28.7385 18.1169C28.7385 16.788 28.633 16.7106 26.8963 16.7176C26.2635 16.7176 25.6658 16.7458 25.5604 16.7809Z" fill="url(#paint1_linear_1183_421)"/>
<path d="M4.79836 18.1938C3.17414 18.4469 1.78899 19.3329 0.888987 20.704C-0.0883566 22.1946 -0.271169 24.1001 0.3968 25.8227C1.00149 27.3837 2.51321 28.7196 4.17961 29.1696C4.94602 29.3735 6.19758 29.3735 6.97805 29.1626C8.98196 28.6352 10.5429 27.0462 11.021 25.0633C11.2109 24.2618 11.2109 23.1157 11.021 22.3633C10.5148 20.4016 8.93977 18.8196 6.99211 18.3274C6.33117 18.1657 5.36789 18.1024 4.79836 18.1938ZM6.09914 20.7321C6.54211 21.0415 6.62649 21.2172 6.64758 21.9907L6.67571 22.6868H7.25227C8.20852 22.6868 8.7218 23.0665 8.7218 23.7907C8.7218 24.1422 8.57414 24.3883 8.20852 24.6344C8.01164 24.7751 7.88508 24.7962 7.32258 24.7962H6.66164V25.3727C6.66164 26.0758 6.49992 26.4837 6.15539 26.6946C5.67024 26.9899 4.99524 26.8141 4.69289 26.329C4.58039 26.1391 4.55227 25.9704 4.55227 25.443V24.7962H3.85617C3.25852 24.7962 3.13899 24.7751 2.93508 24.6344C2.3093 24.2126 2.29524 23.3899 2.89992 22.9258C3.13899 22.743 3.22336 22.7219 3.85617 22.7008L4.55227 22.6727V21.9907C4.55227 21.4422 4.58039 21.2735 4.69289 21.0837C4.99524 20.5915 5.64914 20.4297 6.09914 20.7321Z" fill="url(#paint2_linear_1183_421)"/>
<defs>
<linearGradient id="paint0_linear_1183_421" x1="15.4186" y1="27.9252" x2="15.4186" y2="0" gradientUnits="userSpaceOnUse">
<stop stop-color="#38BBA2"/>
<stop offset="1" stop-color="#10302A"/>
</linearGradient>
<linearGradient id="paint1_linear_1183_421" x1="26.6349" y1="19.514" x2="26.6349" y2="16.7173" gradientUnits="userSpaceOnUse">
<stop stop-color="#38BBA2"/>
<stop offset="1" stop-color="#10302A"/>
</linearGradient>
<linearGradient id="paint2_linear_1183_421" x1="5.5817" y1="29.3217" x2="5.5817" y2="18.1517" gradientUnits="userSpaceOnUse">
<stop stop-color="#38BBA2"/>
<stop offset="1" stop-color="#10302A"/>
</linearGradient>
</defs>
</svg>
