<svg width="408" height="430" viewBox="0 0 408 430" fill="none" xmlns="http://www.w3.org/2000/svg">
<g filter="url(#filter0_d_1136_13599)">
<path d="M286.837 340.06L237.789 313.378L238.314 30.5859L287.363 57.2677L286.837 340.06Z" fill="#DADADA"/>
<path d="M287.361 57.2674L238.312 30.5855L297.265 22.2998L346.313 48.9816L287.361 57.2674Z" fill="#E6E6E6"/>
<path d="M346.313 48.9814L345.788 331.775L286.836 340.06L287.362 57.2672L346.313 48.9814Z" fill="#F5F2F3"/>
<path d="M221.333 349.265L172.285 322.583L172.679 110.489L221.727 137.171L221.333 349.265Z" fill="#DADADA"/>
<path d="M221.728 137.171L172.68 110.489L231.631 102.204L280.679 128.885L221.728 137.171Z" fill="#E6E6E6"/>
<path d="M280.677 128.885L280.283 340.98L221.332 349.265L221.726 137.171L280.677 128.885Z" fill="#F5F2F3"/>
<path d="M155.833 358.471L106.785 331.789L107.047 190.394L156.095 217.074L155.833 358.471Z" fill="#DADADA"/>
<path d="M156.095 217.074L107.047 190.393L165.999 182.107L215.047 208.789L156.095 217.074Z" fill="#E6E6E6"/>
<path d="M215.046 208.789L214.783 350.186L155.832 358.471L156.094 217.074L215.046 208.789Z" fill="#F5F2F3"/>
<path d="M90.3488 367.675L41.3008 340.993L41.4318 270.295L90.4798 296.977L90.3488 367.675Z" fill="#DADADA"/>
<path d="M90.4816 296.976L41.4336 270.295L100.368 262.012L149.416 288.694L90.4816 296.976Z" fill="#E6E6E6"/>
<path d="M149.413 288.693L149.282 359.392L90.3477 367.675L90.4787 296.976L149.413 288.693Z" fill="#F5F2F3"/>
<path d="M317.683 162.625L348.089 165.226L318.017 101.207L278.71 159.264L308.83 161.864C305.226 184.204 298.917 206.091 289.328 226.478C288.707 227.986 287.933 229.416 287.161 230.845L284.86 235.134C283.332 238.013 281.862 240.911 280.028 243.616L274.835 251.845L269.048 259.685C261.086 269.918 252.149 279.433 242.197 287.783C222.198 304.349 198.753 316.629 173.916 324.512C161.508 328.463 148.752 331.388 135.839 333.363C124.354 335.084 112.748 336.117 101.122 336.084C99.6561 336.08 98.1884 336.058 96.7227 336.02C100.083 336.208 103.447 336.302 106.811 336.311C116.559 336.339 126.31 335.657 135.996 334.504C149.006 332.896 161.936 330.359 174.593 326.738C199.871 319.514 224.061 307.798 245.049 291.409C255.496 283.156 264.985 273.662 273.501 263.334L279.705 255.418L285.317 247.074C287.283 244.332 288.887 241.395 290.567 238.478L293.077 234.092C293.927 232.643 294.757 231.175 295.454 229.648C306.087 208.586 313.324 185.851 317.685 162.623L317.683 162.625Z" fill="#2E8C7A"/>
<path d="M152.139 330.339L168.073 326.848C162.677 328.031 157.239 329.037 151.773 329.873C140.288 331.593 128.683 332.627 117.056 332.594C115.591 332.59 114.123 332.568 112.657 332.529L96.7227 336.021C98.1884 336.06 99.6561 336.081 101.122 336.086C112.748 336.119 124.354 335.085 135.839 333.365C141.305 332.528 146.744 331.522 152.139 330.339Z" fill="#1E3D37"/>
<path d="M332.676 163.919L317.687 162.626C317.423 164.086 317.135 165.528 316.827 166.972C316.676 167.727 316.525 168.48 316.35 169.215C316.101 170.436 315.851 171.635 315.56 172.86C315.233 174.327 314.902 175.774 314.529 177.226C314.257 178.427 313.962 179.609 313.625 180.818C313.344 181.955 313.044 183.095 312.722 184.237C312.344 185.646 311.947 187.079 311.526 188.492C310.71 191.36 309.809 194.238 308.883 197.074C308.485 198.312 308.063 199.531 307.639 200.728C307.575 200.93 307.513 201.133 307.428 201.338C307.253 201.878 307.075 202.397 306.878 202.939C306.697 203.437 306.517 203.934 306.315 204.434C305.731 206.127 305.101 207.782 304.45 209.46C303.664 211.458 302.856 213.458 302.006 215.463C301.139 217.513 300.25 219.566 299.317 221.602C299.32 221.624 299.301 221.648 299.284 221.692C298.504 223.364 297.722 225.036 296.918 226.689C296.764 227.032 296.606 227.354 296.447 227.676C296.113 228.342 295.776 228.989 295.464 229.653C294.754 231.187 293.927 232.648 293.076 234.09L290.574 238.474C288.877 241.401 287.29 244.337 285.312 247.079L279.695 255.422L273.507 263.332C264.979 273.658 255.489 283.165 245.052 291.418C224.056 307.806 199.874 319.516 174.587 326.74C172.783 327.253 170.978 327.744 169.169 328.213C167.845 328.562 166.52 328.911 165.212 329.214C165.105 329.226 165.002 329.261 164.875 329.297C163.337 329.671 161.797 330.022 160.254 330.353L175.867 326.939C180.79 325.869 185.672 324.631 190.537 323.243C215.803 316.021 239.984 304.31 260.98 287.922C271.438 279.668 280.931 270.182 289.435 259.836L295.643 251.924L301.26 243.581C303.217 240.841 304.826 237.903 306.501 234.979L309.003 230.594C309.712 229.428 310.375 228.225 310.991 227.006C311.133 226.729 311.249 226.434 311.391 226.158C311.725 225.49 312.04 224.848 312.374 224.18C316.337 216.139 319.797 207.873 322.805 199.444C326.943 187.872 330.197 175.97 332.676 163.919Z" fill="#0C2621"/>
<path d="M348.092 165.226L364.027 161.735L333.954 97.7158L318.02 101.207L348.092 165.226Z" fill="#0C2621"/>
</g>
<defs>
<filter id="filter0_d_1136_13599" x="0.000782013" y="-0.00019455" width="407.327" height="429.975" filterUnits="userSpaceOnUse" color-interpolation-filters="sRGB">
<feFlood flood-opacity="0" result="BackgroundImageFix"/>
<feColorMatrix in="SourceAlpha" type="matrix" values="0 0 0 0 0 0 0 0 0 0 0 0 0 0 0 0 0 0 127 0" result="hardAlpha"/>
<feMorphology radius="1" operator="dilate" in="SourceAlpha" result="effect1_dropShadow_1136_13599"/>
<feOffset dx="1" dy="20"/>
<feGaussianBlur stdDeviation="20.65"/>
<feComposite in2="hardAlpha" operator="out"/>
<feColorMatrix type="matrix" values="0 0 0 0 0.769087 0 0 0 0 0.798077 0 0 0 0 0.776334 0 0 0 0.55 0"/>
<feBlend mode="normal" in2="BackgroundImageFix" result="effect1_dropShadow_1136_13599"/>
<feBlend mode="normal" in="SourceGraphic" in2="effect1_dropShadow_1136_13599" result="shape"/>
</filter>
</defs>
</svg>
