<svg width="28" height="33" viewBox="0 0 28 33" fill="none" xmlns="http://www.w3.org/2000/svg">
<path opacity="0.99" fill-rule="evenodd" clip-rule="evenodd" d="M13.8243 0C17.7421 0.000742187 20.2292 1.87574 21.2853 5.625C21.8305 8.34328 21.492 10.9474 20.2696 13.4375C19.7866 13.6515 19.2788 13.7816 18.7462 13.8281C18.2822 13.5999 17.7875 13.4567 17.2618 13.3984C16.5815 13.3397 15.9044 13.3657 15.2306 13.4766C13.9352 13.9709 13.4534 14.8953 13.7853 16.25C14.1224 17.0303 14.7083 17.486 15.5431 17.6172C16.275 17.6759 17.0041 17.6629 17.7306 17.5781C17.4993 18.3861 17.7077 19.0502 18.3556 19.5703C19.285 20.139 20.2746 20.5817 21.3243 20.8984C22.9328 21.572 24.4432 22.4054 25.8556 23.3984C27.7364 24.865 28.3485 26.753 27.6915 29.0625C27.3336 29.7398 26.8257 30.2738 26.1681 30.6641C25.2361 31.1831 24.2464 31.5477 23.1993 31.7578C20.1398 32.3159 17.0539 32.5634 13.9415 32.5C10.906 32.5724 7.89816 32.3251 4.91809 31.7578C3.78262 31.5096 2.71488 31.093 1.71496 30.5078C0.00189796 29.172 -0.42779 27.4923 0.425898 25.4688C0.789578 24.792 1.27135 24.206 1.87121 23.7109C4.18644 22.0322 6.68644 20.678 9.37121 19.6484C10.33 19.0636 10.6035 18.2433 10.1915 17.1875C9.12262 15.8317 8.21121 14.3734 7.45715 12.8125C6.30684 10.0347 6.20269 7.22219 7.14465 4.375C8.47043 1.55339 10.697 0.0950625 13.8243 0Z" fill="#2E8C7A"/>
</svg>
