<svg width="30" height="30" viewBox="0 0 30 30" fill="none" xmlns="http://www.w3.org/2000/svg">
<path d="M12.6806 0.104597C7.82901 0.744442 3.66651 3.71163 1.50792 8.06397C0.530573 10.0327 0.0805725 11.8398 0.01026 14.0968C-0.0389587 15.5663 0.0876038 16.7546 0.418073 18.0694C2.30948 25.5929 9.81182 30.3249 17.4056 28.7921C23.4103 27.5757 27.9806 22.7523 28.9228 16.628C29.0845 15.5804 29.0915 13.5273 28.9298 12.4796C28.0298 6.60147 23.8181 1.89757 18.1649 0.45616C16.4423 0.0131893 14.3681 -0.113371 12.6806 0.104597ZM11.4009 6.42569C11.886 6.62256 12.1532 7.15694 12.0478 7.71241C12.0126 7.92335 11.8509 8.13428 11.2532 8.73194L10.5149 9.49132L16.0767 9.50538C21.5681 9.52647 21.6384 9.52647 21.8282 9.67413C22.2009 9.94835 22.3134 10.1733 22.3134 10.6163C22.3134 11.0593 22.2009 11.2843 21.8282 11.5585C21.6384 11.7062 21.5681 11.7062 16.0767 11.7273L10.5149 11.7413L11.2532 12.5007C12.0548 13.3093 12.1532 13.4991 12.0478 14.0405C11.9845 14.3921 11.5626 14.8069 11.211 14.8702C10.6274 14.9827 10.5009 14.8913 8.58839 12.9858C6.0712 10.4687 6.07823 10.771 8.51807 8.30303C10.5079 6.29913 10.747 6.14444 11.4009 6.42569ZM18.7345 14.4062C19.1985 14.7437 22.1939 17.8093 22.2712 18.0202C22.3837 18.3226 22.3626 18.6812 22.2149 18.9694C22.0392 19.2999 18.7907 22.5343 18.5306 22.6327C17.6376 22.9702 16.7587 22.2179 16.9978 21.3249C17.054 21.128 17.2579 20.8679 17.7782 20.3546C18.1649 19.9679 18.4814 19.6304 18.4814 19.6023C18.4814 19.5671 16.0134 19.546 12.997 19.546C6.91495 19.546 7.28057 19.5741 6.90089 19.0819C6.7462 18.878 6.71104 18.7515 6.71104 18.4491C6.71104 18.0273 6.84464 17.7882 7.23135 17.521L7.46339 17.3663H12.9689C15.9993 17.3663 18.4814 17.3452 18.4814 17.3101C18.4814 17.2819 18.1931 16.9726 17.8415 16.628C16.8782 15.6788 16.7235 15.1585 17.2368 14.5749C17.504 14.2726 17.6446 14.2093 18.1017 14.2093C18.3899 14.2023 18.5165 14.2444 18.7345 14.4062Z" fill="url(#paint0_linear_1183_429)"/>
<defs>
<linearGradient id="paint0_linear_1183_429" x1="14.5238" y1="29.0801" x2="14.5238" y2="0.000265121" gradientUnits="userSpaceOnUse">
<stop stop-color="#38BBA2"/>
<stop offset="1" stop-color="#10302A"/>
</linearGradient>
</defs>
</svg>
