<svg width="1440" height="860" viewBox="0 0 1440 860" fill="none" xmlns="http://www.w3.org/2000/svg">
<g clip-path="url(#clip0_1136_13206)">
<rect width="1440" height="860" fill="white"/>
<g clip-path="url(#clip1_1136_13206)">
<rect width="1440" height="900" fill="url(#paint0_linear_1136_13206)"/>
<path d="M1819 218.5C1819 458.468 1624.47 653 1384.5 653C1144.53 653 950 458.468 950 218.5C950 -21.4677 1144.53 -216 1384.5 -216C1624.47 -216 1819 -21.4677 1819 218.5ZM1123.8 218.5C1123.8 362.481 1240.52 479.2 1384.5 479.2C1528.48 479.2 1645.2 362.481 1645.2 218.5C1645.2 74.5193 1528.48 -42.2 1384.5 -42.2C1240.52 -42.2 1123.8 74.5193 1123.8 218.5Z" fill="#2E8C7A"/>
<path d="M335 786C335 927.937 219.937 1043 78 1043C-63.9372 1043 -179 927.937 -179 786C-179 644.063 -63.9372 529 78 529C219.937 529 335 644.063 335 786ZM-89.05 786C-89.05 878.259 -14.2592 953.05 78 953.05C170.259 953.05 245.05 878.259 245.05 786C245.05 693.741 170.259 618.95 78 618.95C-14.2592 618.95 -89.05 693.741 -89.05 786Z" fill="#2E8C7A"/>
<path d="M163 138C163 241.83 78.8295 326 -25 326C-128.83 326 -213 241.83 -213 138C-213 34.1705 -128.83 -50 -25 -50C78.8295 -50 163 34.1705 163 138ZM-147.2 138C-147.2 205.489 -92.4892 260.2 -25 260.2C42.4892 260.2 97.2 205.489 97.2 138C97.2 70.5108 42.4892 15.8 -25 15.8C-92.4892 15.8 -147.2 70.5108 -147.2 138Z" fill="#2E8C7A"/>
</g>
</g>
<defs>
<linearGradient id="paint0_linear_1136_13206" x1="720" y1="0" x2="720" y2="900" gradientUnits="userSpaceOnUse">
<stop stop-color="#38A28D"/>
<stop offset="1" stop-color="#96C78B"/>
</linearGradient>
<clipPath id="clip0_1136_13206">
<rect width="1440" height="860" fill="white"/>
</clipPath>
<clipPath id="clip1_1136_13206">
<rect width="1440" height="900" fill="white"/>
</clipPath>
</defs>
</svg>
