<svg width="440" height="782" viewBox="0 0 440 782" fill="none" xmlns="http://www.w3.org/2000/svg">
<g clip-path="url(#clip0_483_9549)">
<rect width="440" height="782" fill="url(#paint0_linear_483_9549)"/>
<path d="M46.4901 115.781C66.4928 169.624 39.0606 229.487 -14.7815 249.489C-68.6236 269.492 -128.487 242.06 -148.489 188.218C-168.492 134.376 -141.06 74.5126 -87.2178 54.5099C-33.3757 34.5072 26.4873 61.9394 46.4901 115.781ZM-114.368 175.541C-101.366 210.539 -62.4552 228.37 -27.4579 215.368C7.53949 202.366 25.3704 163.455 12.3687 128.458C-0.633096 93.4605 -39.5441 75.6295 -74.5414 88.6313C-109.539 101.633 -127.37 140.544 -114.368 175.541Z" fill="#2E8C7A"/>
<path d="M769 331C769 448.084 674.084 543 557 543C439.916 543 345 448.084 345 331C345 213.916 439.916 119 557 119C674.084 119 769 213.916 769 331ZM419.2 331C419.2 407.105 480.895 468.8 557 468.8C633.105 468.8 694.8 407.105 694.8 331C694.8 254.895 633.105 193.2 557 193.2C480.895 193.2 419.2 254.895 419.2 331Z" fill="#2E8C7A"/>
<path d="M113 722.5C113 789.603 58.6026 844 -8.5 844C-75.6026 844 -130 789.603 -130 722.5C-130 655.397 -75.6026 601 -8.5 601C58.6026 601 113 655.397 113 722.5ZM-87.475 722.5C-87.475 766.117 -52.1167 801.475 -8.5 801.475C35.1167 801.475 70.475 766.117 70.475 722.5C70.475 678.883 35.1167 643.525 -8.5 643.525C-52.1167 643.525 -87.475 678.883 -87.475 722.5Z" fill="#2E8C7A"/>
</g>
<defs>
<linearGradient id="paint0_linear_483_9549" x1="220" y1="0" x2="220" y2="782" gradientUnits="userSpaceOnUse">
<stop stop-color="#38A28D"/>
<stop offset="1" stop-color="#96C78B"/>
</linearGradient>
<clipPath id="clip0_483_9549">
<rect width="440" height="782" fill="white"/>
</clipPath>
</defs>
</svg>
