<svg width="40" height="40" viewBox="0 0 40 40" fill="none" xmlns="http://www.w3.org/2000/svg">
<g clip-path="url(#clip0_1136_13389)">
<path opacity="0.994" fill-rule="evenodd" clip-rule="evenodd" d="M19.9609 -0.0390625C20.6901 -0.0390625 21.4193 -0.0390625 22.1484 -0.0390625C22.4852 0.128648 22.7327 0.389066 22.8906 0.742188C22.9427 7.85156 22.9427 14.9609 22.8906 22.0703C22.7734 22.5 22.5 22.7734 22.0703 22.8906C14.9609 22.9427 7.85156 22.9427 0.742188 22.8906C0.389066 22.7327 0.128648 22.4852 -0.0390625 22.1484C-0.0390625 21.4193 -0.0390625 20.6901 -0.0390625 19.9609C0.892531 11.7796 5.00712 5.80308 12.3047 2.03125C14.747 0.900008 17.2991 0.2099 19.9609 -0.0390625Z" fill="#2E8C7A"/>
<path opacity="0.986" fill-rule="evenodd" clip-rule="evenodd" d="M39.961 19.8047C39.961 20.0651 39.961 20.3255 39.961 20.5859C37.0182 20.5859 34.0756 20.5859 31.1328 20.5859C30.6138 17.322 28.9211 14.887 26.0547 13.2812C25.8677 13.1287 25.7505 12.9334 25.7031 12.6953C25.651 10.1432 25.651 7.59115 25.7031 5.03906C25.9181 4.51134 26.3088 4.22488 26.875 4.17969C33.116 6.17579 37.2566 10.2904 39.2969 16.5234C39.5953 17.6132 39.8167 18.707 39.961 19.8047Z" fill="#2E8C7A"/>
<path opacity="0.984" fill-rule="evenodd" clip-rule="evenodd" d="M39.9609 22.8516C39.9609 23.1641 39.9609 23.4766 39.9609 23.7891C39.0749 29.8473 36.028 34.4697 30.8203 37.6562C28.6082 38.858 26.2645 39.6263 23.7891 39.9609C23.4766 39.9609 23.1641 39.9609 22.8516 39.9609C22.8516 37.0182 22.8516 34.0755 22.8516 31.1328C26.1336 30.6452 28.5685 28.9525 30.1562 26.0547C30.6632 25.0418 30.9887 23.9741 31.1328 22.8516C34.0755 22.8516 37.0182 22.8516 39.9609 22.8516Z" fill="#2E8C7A"/>
<path opacity="0.986" fill-rule="evenodd" clip-rule="evenodd" d="M20.5859 39.961C20.3255 39.961 20.0651 39.961 19.8047 39.961C13.2494 39.068 8.41859 35.7086 5.3125 29.8828C4.8579 28.9097 4.48029 27.9071 4.17969 26.875C4.22488 26.3088 4.51134 25.9181 5.03906 25.7031C7.59115 25.651 10.1432 25.651 12.6953 25.7031C12.9334 25.7505 13.1287 25.8677 13.2812 26.0547C14.887 28.9211 17.322 30.6138 20.5859 31.1328C20.5859 34.0756 20.5859 37.0182 20.5859 39.961Z" fill="#2E8C7A"/>
</g>
<defs>
<clipPath id="clip0_1136_13389">
<rect width="40" height="40" fill="white"/>
</clipPath>
</defs>
</svg>
