<svg width="40" height="40" viewBox="0 0 40 40" fill="none" xmlns="http://www.w3.org/2000/svg">
<g clip-path="url(#clip0_1136_13362)">
<path opacity="0.992" fill-rule="evenodd" clip-rule="evenodd" d="M19.494 -0.0390625C19.8065 -0.0390625 20.119 -0.0390625 20.4315 -0.0390625C25.6758 1.45458 30.9361 2.92593 36.2127 4.375C36.8185 4.48615 37.1961 4.83771 37.3455 5.42969C37.9165 9.95242 37.9946 14.4837 37.5799 19.0234C37.3258 21.6484 36.7529 24.2005 35.8611 26.6797C35.0078 28.8067 33.8099 30.7078 32.2674 32.3828C28.9834 35.9452 25.0381 38.4712 20.4315 39.9609C20.119 39.9609 19.8065 39.9609 19.494 39.9609C13.6833 38.0957 9.03489 34.6582 5.54864 29.6484C4.30572 27.5609 3.44634 25.3213 2.97052 22.9297C2.3438 19.7841 2.04432 16.6071 2.07208 13.3984C2.08278 10.7318 2.25205 8.07555 2.57989 5.42969C2.72929 4.83771 3.10689 4.48615 3.7127 4.375C8.98927 2.92593 14.2497 1.45458 19.494 -0.0390625ZM27.6971 11.2891C28.1255 11.2364 28.5161 11.3275 28.869 11.5625C29.3768 12.0703 29.8846 12.5781 30.3924 13.0859C30.7225 13.5649 30.7485 14.0598 30.4705 14.5703C26.6533 18.4136 22.8121 22.2288 18.9471 26.0156C18.5013 26.1868 18.0847 26.1347 17.6971 25.8594C15.3403 23.5026 12.9836 21.1459 10.6268 18.7891C10.3524 18.2521 10.3784 17.7313 10.7049 17.2266C11.1867 16.7448 11.6684 16.263 12.1502 15.7812C12.7696 15.3044 13.3686 15.3304 13.9471 15.8594C15.4445 17.3568 16.9418 18.8541 18.4393 20.3516C21.3429 17.4479 24.2465 14.5443 27.1502 11.6406C27.3375 11.5216 27.5198 11.4044 27.6971 11.2891Z" fill="#2E8C7A"/>
</g>
<defs>
<clipPath id="clip0_1136_13362">
<rect width="40" height="40" fill="white"/>
</clipPath>
</defs>
</svg>
