<svg width="21" height="21" viewBox="0 0 21 21" fill="none" xmlns="http://www.w3.org/2000/svg">
<path d="M9.17934 0.653159C9.50149 -0.217459 10.7329 -0.21746 11.055 0.653158L13.1987 6.44632C13.3 6.72004 13.5158 6.93585 13.7895 7.03714L19.5827 9.1808C20.4533 9.50296 20.4533 10.7343 19.5827 11.0565L13.7895 13.2002C13.5158 13.3015 13.3 13.5173 13.1987 13.791L11.055 19.5841C10.7329 20.4548 9.50149 20.4548 9.17934 19.5841L7.03567 13.791C6.93439 13.5173 6.71858 13.3015 6.44486 13.2002L0.651695 11.0565C-0.218924 10.7343 -0.218925 9.50296 0.651694 9.1808L6.44486 7.03714C6.71858 6.93585 6.93439 6.72004 7.03567 6.44632L9.17934 0.653159Z" fill="white"/>
</svg>
