<svg width="29" height="29" viewBox="0 0 29 29" fill="none" xmlns="http://www.w3.org/2000/svg">
<path d="M6.75 28.5C4.95979 28.5 3.2429 27.7888 1.97703 26.523C0.711159 25.2571 0 23.5402 0 21.75C0 19.9598 0.711159 18.2429 1.97703 16.977C3.2429 15.7112 4.95979 15 6.75 15C8.54021 15 10.2571 15.7112 11.523 16.977C12.7888 18.2429 13.5 19.9598 13.5 21.75C13.5 23.5402 12.7888 25.2571 11.523 26.523C10.2571 27.7888 8.54021 28.5 6.75 28.5ZM21.75 13.5C20.8636 13.5 19.9858 13.3254 19.1669 12.9862C18.3479 12.647 17.6038 12.1498 16.977 11.523C16.3502 10.8962 15.853 10.1521 15.5138 9.33311C15.1746 8.51417 15 7.63642 15 6.75C15 5.86358 15.1746 4.98583 15.5138 4.16689C15.853 3.34794 16.3502 2.60382 16.977 1.97703C17.6038 1.35023 18.3479 0.853032 19.1669 0.513813C19.9858 0.174594 20.8636 -1.32087e-08 21.75 0C23.5402 2.66762e-08 25.2571 0.711159 26.523 1.97703C27.7888 3.2429 28.5 4.95979 28.5 6.75C28.5 8.54021 27.7888 10.2571 26.523 11.523C25.2571 12.7888 23.5402 13.5 21.75 13.5ZM0.75 8.25C0.75 6.26088 1.54018 4.35322 2.9467 2.9467C4.35322 1.54018 6.26088 0.75 8.25 0.75H12.75V3.75H8.25C7.05653 3.75 5.91193 4.22411 5.06802 5.06802C4.22411 5.91193 3.75 7.05653 3.75 8.25V12.75H0.75V8.25ZM24.75 15.75V20.25C24.75 21.4435 24.2759 22.5881 23.432 23.432C22.5881 24.2759 21.4435 24.75 20.25 24.75H15.75V27.75H20.25C22.2391 27.75 24.1468 26.9598 25.5533 25.5533C26.9598 24.1468 27.75 22.2391 27.75 20.25V15.75H24.75Z" fill="url(#paint0_linear_1207_383)"/>
<defs>
<linearGradient id="paint0_linear_1207_383" x1="14.25" y1="0" x2="14.25" y2="28.5" gradientUnits="userSpaceOnUse">
<stop stop-color="#38BBA2"/>
<stop offset="1" stop-color="#10302A"/>
</linearGradient>
</defs>
</svg>
